<?xml version="1.0" encoding="UTF-8"?>
<svg version="1.1" xmlns="http://www.w3.org/2000/svg" width="1022" height="1022">
<path d="M0 0 C37.65644497 1.10660723 73.98848205 6.23531845 109.83642578 18.06933594 C110.79838867 18.38628418 111.76035156 18.70323242 112.75146484 19.02978516 C150.49267719 31.67355011 185.81368427 51.17386187 216.83642578 76.06933594 C217.68462891 76.74351562 218.53283203 77.41769531 219.40673828 78.11230469 C225.96727585 83.39250943 232.18314968 88.96573725 238.34570312 94.69628906 C240.75285841 96.91342652 243.20666708 99.07851491 245.64892578 101.25683594 C249.35201572 104.62184063 252.74773241 108.05466708 255.96533203 111.88183594 C257.86675063 114.10478879 259.83952103 116.25126982 261.83203125 118.39257812 C303.8339657 163.59479542 337.05488309 227.47925334 344.83642578 289.06933594 C338.7125952 290.35659012 332.68649324 291.22533742 326.43798828 291.63574219 C325.1961377 291.71896729 323.95428711 291.80219238 322.67480469 291.88793945 C321.26980713 291.97773071 321.26980713 291.97773071 319.83642578 292.06933594 C319.63597656 291.22564453 319.43552734 290.38195312 319.22900391 289.51269531 C302.46253942 219.44332106 268.52963426 149.40080469 210.37158203 104.04980469 C207.63430215 101.91143658 205.02754151 99.65217025 202.39892578 97.38183594 C181.00993966 79.58531518 156.61996138 66.46110374 131.83642578 54.06933594 C131.68512207 54.62443848 131.53381836 55.17954102 131.37792969 55.75146484 C129.16280209 63.51930436 126.21871264 70.95533466 123.21142578 78.44433594 C122.21610643 80.93009199 121.22471981 83.41732759 120.23486328 85.90527344 C119.79835449 86.99372559 119.3618457 88.08217773 118.91210938 89.20361328 C118.05136887 91.49670725 117.35421274 93.68116095 116.83642578 96.06933594 C117.65626953 96.31167969 118.47611328 96.55402344 119.32080078 96.80371094 C123.46939643 98.29720537 127.21245857 100.23008805 131.08642578 102.31933594 C132.20488892 102.91669556 132.20488892 102.91669556 133.34594727 103.52612305 C138.94665111 106.53805711 144.44657257 109.69240088 149.83642578 113.06933594 C148.24518533 116.70523481 145.99703538 119.47000118 143.46142578 122.50683594 C140.55353183 126.00311646 137.66626896 129.50941907 134.83642578 133.06933594 C130.13503738 131.6924498 126.19590122 129.63262445 122.02392578 127.13183594 C99.00762178 113.88415889 74.15256027 105.74110523 48.27392578 100.19433594 C47.38439209 100.00307129 46.4948584 99.81180664 45.57836914 99.61474609 C30.21988504 96.53773927 14.83970086 95.68673381 -0.78857422 95.75683594 C-1.66064514 95.75899109 -2.53271606 95.76114624 -3.43121338 95.7633667 C-72.65685507 96.03669857 -137.65364698 124.9563468 -186.25683594 173.92602539 C-191.24158529 179.04143196 -195.79257658 184.41980151 -200.16357422 190.06933594 C-200.96150391 191.07351563 -201.75943359 192.07769531 -202.58154297 193.11230469 C-244.86257838 246.64741148 -263.19818991 314.41317401 -256.38989258 382.09277344 C-248.60823607 445.25451629 -216.39828987 509.07000212 -165.92529297 548.93261719 C-165.01392578 549.63773438 -164.10255859 550.34285156 -163.16357422 551.06933594 C-162.15939453 551.86726562 -161.15521484 552.66519531 -160.12060547 553.48730469 C-106.58549867 595.76834009 -38.81973614 614.10395163 28.85986328 607.2956543 C92.02160614 599.51399779 155.83709196 567.30405159 195.69970703 516.83105469 C196.40482422 515.9196875 197.10994141 515.00832031 197.83642578 514.06933594 C198.63435547 513.06515625 199.43228516 512.06097656 200.25439453 511.02636719 C242.53035355 457.49768797 261.03350333 389.53094981 254.01147461 321.84179688 C252.49854934 309.75062034 249.91291078 297.85152526 246.83642578 286.06933594 C246.62147461 285.24014648 246.40652344 284.41095703 246.18505859 283.55664062 C237.15403556 249.4979394 220.34232954 217.14915047 197.83642578 190.06933594 C197.35802246 189.48941895 196.87961914 188.90950195 196.38671875 188.31201172 C193.55601579 184.8812868 190.70583682 181.46781408 187.83642578 178.06933594 C192.60453298 171.54357353 197.68584968 165.29581016 202.83642578 159.06933594 C228.91512055 170.01885564 250.10117079 219.77187564 260.16186523 244.24682617 C273.91168653 278.72859739 281.08442761 314.44862107 281.02392578 351.56933594 C281.0229892 352.31700226 281.02205261 353.06466858 281.02108765 353.83499146 C280.91454472 393.23960359 272.51756804 430.92997389 256.83642578 467.06933594 C256.46259766 467.93284668 256.08876953 468.79635742 255.70361328 469.68603516 C247.8133694 487.65549796 237.68359339 504.43733671 225.83642578 520.06933594 C225.40507324 520.64345215 224.9737207 521.21756836 224.52929688 521.80908203 C210.34040725 540.60845423 193.59894382 558.80982223 174.83642578 573.06933594 C173.67321753 573.98413137 172.51048979 574.89953799 171.34814453 575.81542969 C122.33245861 613.97297174 61.31808751 634.3578578 -0.66357422 634.25683594 C-1.41124054 634.25589935 -2.15890686 634.25496277 -2.92922974 634.2539978 C-42.87171565 634.14600056 -80.24132913 625.04026221 -117.16357422 610.06933594 C-117.42710693 610.91028809 -117.69063965 611.75124023 -117.9621582 612.61767578 C-119.23731075 616.28118049 -120.76327589 619.7782268 -122.38623047 623.29589844 C-122.69177353 623.96599945 -122.99731659 624.63610046 -123.31211853 625.32650757 C-124.6089521 628.17065204 -125.91273707 631.01158996 -127.21655273 633.85253906 C-128.1717312 635.93656481 -129.12285324 638.02240749 -130.07373047 640.10839844 C-130.36852798 640.74701813 -130.6633255 641.38563782 -130.96705627 642.04360962 C-132.32035555 645.01446085 -133.53359889 647.85681258 -134.16357422 651.06933594 C-133.44492187 651.19300537 -132.72626953 651.3166748 -131.98583984 651.4440918 C-129.15031809 652.0722727 -126.68928157 652.96568038 -124.00732422 654.07324219 C-88.33417726 668.4850795 -50.70200711 677.06157565 -12.16357422 678.06933594 C-11.32745605 678.09125 -10.49133789 678.11316406 -9.62988281 678.13574219 C29.74102179 678.98869553 68.63839707 672.96843449 105.83642578 660.06933594 C106.69558594 659.77188477 107.55474609 659.47443359 108.43994141 659.16796875 C151.28595004 644.09855507 189.57052394 619.80210763 222.73095703 588.96777344 C224.83642578 587.06933594 224.83642578 587.06933594 228.02392578 584.81933594 C230.71932878 580.72975897 229.61101403 577.29068071 229.05908203 572.55371094 C228.53800041 564.39924061 230.91173062 557.04785409 236.17236328 550.81542969 C243.58996889 543.03216746 250.28751188 539.76286216 261.10986328 539.07714844 C269.47414742 539.05318201 276.24762314 541.96165257 282.83642578 547.06933594 C289.94480275 554.28440525 292.94387251 561.02003512 293.21142578 571.06933594 C292.9974653 580.17238199 290.51746432 587.10591457 284.15283203 593.85449219 C275.98989753 601.59039189 268.24239653 603.53094194 257.13330078 603.40527344 C253.7748732 603.06306399 250.98475701 602.26188565 247.83642578 601.06933594 C246.91603516 601.94074219 245.99564453 602.81214844 245.04736328 603.70996094 C206.69301623 639.87555325 162.82443791 667.77297453 112.83642578 685.06933594 C111.92860352 685.38741211 111.02078125 685.70548828 110.08544922 686.03320312 C41.01313529 709.9919579 -33.34014021 708.41899041 -103.16357422 689.06933594 C-103.37884766 690.33132813 -103.59412109 691.59332031 -103.81591797 692.89355469 C-105.5129056 701.37849286 -108.21389884 709.61109234 -110.72607422 717.88183594 C-111.48876259 720.40186634 -112.25008444 722.92228988 -113.0087738 725.44352722 C-113.47815562 727.00248263 -113.94992497 728.56072183 -114.42445374 730.11811829 C-115.51940286 733.74637086 -116.50918018 737.33446808 -117.16357422 741.06933594 C-116.27669922 741.16730469 -115.38982422 741.26527344 -114.47607422 741.36621094 C-109.83583628 742.02976496 -105.34960418 743.23603471 -100.81201172 744.39282227 C-88.99569071 747.39355421 -77.19883709 749.9390178 -65.16357422 751.88183594 C-63.38080078 752.1733252 -63.38080078 752.1733252 -61.56201172 752.47070312 C-41.57974782 755.56708334 -21.80836663 756.44209356 -1.60107422 756.38183594 C-0.36478271 756.38034546 0.87150879 756.37885498 2.14526367 756.37731934 C19.92011492 756.33877091 37.2584963 755.86901636 54.83642578 753.06933594 C56.87144772 752.77543565 58.90660612 752.48247886 60.94189453 752.19042969 C105.11804529 745.58184425 148.32994146 730.91956304 187.76220703 709.99511719 C189.83642578 709.06933594 189.83642578 709.06933594 192.83642578 709.06933594 C194.18676758 710.76586914 194.18676758 710.76586914 195.53564453 713.12011719 C196.02226563 713.96380859 196.50888672 714.8075 197.01025391 715.67675781 C197.50976562 716.56943359 198.00927734 717.46210937 198.52392578 718.38183594 C199.03503906 719.26291016 199.54615234 720.14398437 200.07275391 721.05175781 C203.83642578 727.65953954 203.83642578 727.65953954 203.83642578 731.06933594 C161.08107129 753.42022303 115.59800255 769.60879422 67.83642578 777.06933594 C66.50417969 777.27768066 66.50417969 777.27768066 65.14501953 777.49023438 C58.72230017 778.47212493 52.28812857 779.30333302 45.83642578 780.06933594 C44.99708496 780.1752002 44.15774414 780.28106445 43.29296875 780.39013672 C13.19337063 784.06593436 -19.09267133 783.92713348 -49.16357422 780.06933594 C-50.76096436 779.87597656 -50.76096436 779.87597656 -52.390625 779.67871094 C-141.79579414 768.69221312 -227.00750679 730.36654415 -292.72021484 668.41552734 C-294.87450557 666.40626498 -297.0828949 664.45934766 -299.28857422 662.50683594 C-306.66086636 655.88975421 -313.75397834 648.93356483 -320.18310547 641.38964844 C-321.76730855 639.53359986 -323.36976783 637.70033023 -324.98779297 635.87402344 C-345.47402981 612.67083779 -363.41970097 587.3065399 -378.16357422 560.06933594 C-378.70433594 559.07530762 -379.24509766 558.0812793 -379.80224609 557.05712891 C-391.66310856 535.1105665 -401.45579708 512.77941723 -409.35107422 489.13183594 C-409.59594574 488.39898376 -409.84081726 487.66613159 -410.09310913 486.91107178 C-414.16357422 474.65704029 -414.16357422 474.65704029 -414.16357422 471.06933594 C-414.98873535 471.32457031 -414.98873535 471.32457031 -415.83056641 471.58496094 C-427.97303353 475.33183631 -440.14321131 478.97891929 -452.35107422 482.50683594 C-453.56182617 482.86068359 -454.77257812 483.21453125 -456.02001953 483.57910156 C-457.72109863 484.06733398 -457.72109863 484.06733398 -459.45654297 484.56542969 C-460.96510864 485.00133423 -460.96510864 485.00133423 -462.50415039 485.44604492 C-465.16357422 486.06933594 -465.16357422 486.06933594 -469.16357422 486.06933594 C-462.60418325 506.40990202 -455.96821582 526.56592443 -447.16357422 546.06933594 C-446.62442383 547.26816406 -446.08527344 548.46699219 -445.52978516 549.70214844 C-438.69838435 564.83629715 -431.65290959 579.78099054 -423.16357422 594.06933594 C-422.64859375 594.9457373 -422.13361328 595.82213867 -421.60302734 596.72509766 C-407.37494485 620.86884207 -391.20473463 643.62073882 -373.16357422 665.06933594 C-372.69032715 665.63281738 -372.21708008 666.19629883 -371.72949219 666.77685547 C-364.03180907 675.92650985 -364.03180907 675.92650985 -355.72216797 684.51464844 C-354.02159112 686.21096319 -352.47270722 687.99239891 -350.91357422 689.81933594 C-344.57368326 697.15651312 -337.61217907 703.98838929 -330.23388672 710.27636719 C-327.78083311 712.40080418 -325.41654275 714.6112223 -323.03857422 716.81933594 C-317.24908452 722.09775344 -311.15020949 726.90091522 -304.94873047 731.68261719 C-303.20598038 733.03639461 -301.47935151 734.40807792 -299.75732422 735.78808594 C-278.61161694 752.70465176 -255.8245673 766.95430712 -232.16357422 780.06933594 C-231.40173828 780.49424316 -230.63990234 780.91915039 -229.85498047 781.35693359 C-195.20191426 800.56380663 -157.59036244 814.61145174 -119.16357422 824.06933594 C-118.05820312 824.34326172 -116.95283203 824.6171875 -115.81396484 824.89941406 C-92.1837569 830.66457356 -68.04538722 834.67030171 -43.80419922 836.70996094 C-40.16357422 837.06933594 -40.16357422 837.06933594 -36.16357422 838.06933594 C-36.16357422 846.31933594 -36.16357422 854.56933594 -36.16357422 863.06933594 C-142.48319776 854.81290741 -243.89859891 816.40901258 -340.03857422 736.01074219 C-342.0688804 734.15584849 -344.13851395 732.35925578 -346.22607422 730.56933594 C-350.00338965 727.2870316 -353.49356986 723.75836695 -357.00341797 720.19433594 C-358.87021786 718.35791796 -360.76879767 716.66964974 -362.78857422 715.00683594 C-365.98217598 712.34061795 -368.60116807 709.36163605 -371.28857422 706.19433594 C-373.27950925 703.93794291 -375.38126438 701.85422051 -377.53857422 699.75683594 C-381.69323476 695.65860542 -385.35176518 691.28663088 -388.99560547 686.73339844 C-390.90124652 684.39169178 -392.86937435 682.16424271 -394.91357422 679.94433594 C-422.43340212 649.26381493 -443.66922912 612.66692708 -462.16357422 576.06933594 C-462.56672852 575.27382324 -462.96988281 574.47831055 -463.38525391 573.65869141 C-491.20743347 518.26337991 -505.53245101 457.14377822 -511.49951172 395.77246094 C-511.56791763 395.08024445 -511.63632355 394.38802795 -511.70680237 393.67483521 C-512.0729072 389.76095057 -512.16357422 386.02147991 -512.16357422 382.06933594 C-503.91357422 382.06933594 -495.66357422 382.06933594 -487.16357422 382.06933594 C-486.93283203 384.32003906 -486.70208984 386.57074219 -486.46435547 388.88964844 C-483.03694166 422.23434537 -483.03694166 422.23434537 -476.51757812 455.08032227 C-476.0984209 457.4354077 -476.14133393 459.68129667 -476.16357422 462.06933594 C-475.5040274 461.88141479 -474.84448059 461.69349365 -474.16494751 461.49987793 C-467.32065452 459.55032315 -460.47533341 457.60441162 -453.62939453 455.66064453 C-451.07216073 454.93404683 -448.51519354 454.20651011 -445.95849609 453.47802734 C-442.29056825 452.43309441 -438.62170522 451.39150556 -434.95263672 450.35058594 C-433.80364899 450.02247925 -432.65466125 449.69437256 -431.47085571 449.35632324 C-429.87943253 448.90585632 -429.87943253 448.90585632 -428.25585938 448.44628906 C-427.31876129 448.17981567 -426.38166321 447.91334229 -425.41616821 447.63879395 C-423.16357422 447.06933594 -423.16357422 447.06933594 -421.16357422 447.06933594 C-421.36720581 446.09830933 -421.36720581 446.09830933 -421.57495117 445.10766602 C-427.94707397 414.52525187 -431.58948793 384.4066763 -431.47607422 353.13183594 C-431.4742514 352.07516724 -431.47242859 351.01849854 -431.47055054 349.92980957 C-431.37371147 316.33580147 -427.8074467 283.41979884 -419.59960938 250.76586914 C-419.3964209 249.93659912 -419.19323242 249.1073291 -418.98388672 248.25292969 C-418.80100098 247.5367749 -418.61811523 246.82062012 -418.4296875 246.08276367 C-417.73951612 240.86088905 -420.7938171 237.51229056 -423.69091797 233.48339844 C-428.16625116 226.14717587 -428.3290523 217.40371827 -427.16357422 209.06933594 C-424.36399816 199.93983608 -419.15737837 193.60275394 -411.00341797 188.79589844 C-403.20809899 184.91886149 -395.12686394 184.22539968 -386.67919922 186.21777344 C-378.00124586 189.1553415 -371.50050703 194.35483849 -366.91357422 202.20996094 C-363.07608917 210.25801985 -362.77927712 219.43591299 -364.89404297 228.04199219 C-368.21481268 237.02840164 -373.97318558 242.40153923 -382.16357422 247.06933594 C-386.07198461 248.72289418 -388.96850771 249.13972296 -393.16357422 249.06933594 C-395.91373438 260.13468624 -397.99025132 271.3085596 -399.89276123 282.54577637 C-400.15133216 284.07184324 -400.41233504 285.5975006 -400.67608643 287.12268066 C-404.38179866 308.63661354 -405.542769 329.8091204 -405.47607422 351.63183594 C-405.47334 353.48876572 -405.47334 353.48876572 -405.47055054 355.38320923 C-405.42645563 373.1606387 -404.99185899 390.49277093 -402.16357422 408.06933594 C-401.99728516 409.20016602 -401.83099609 410.33099609 -401.65966797 411.49609375 C-390.76803412 485.45835544 -359.17325362 554.84688496 -311.16357422 612.06933594 C-310.74736313 612.56926056 -310.33115204 613.06918518 -309.90232849 613.58425903 C-302.61570714 622.32106882 -294.97191632 630.57888475 -286.8996582 638.59399414 C-285.09135814 640.39149398 -283.29411444 642.1995591 -281.49755859 644.00878906 C-274.69180465 650.82267955 -267.73141963 657.1021024 -260.16357422 663.06933594 C-258.8574481 664.1530234 -257.55496423 665.24112623 -256.25732422 666.33496094 C-247.05295136 674.01052314 -237.46895505 680.91881977 -227.47900391 687.53466797 C-225.29581645 688.98168572 -223.12376272 690.44415678 -220.95263672 691.90917969 C-196.18047373 708.46032251 -168.9722484 721.50514686 -141.16357422 732.06933594 C-140.93500732 731.12171387 -140.70644043 730.1740918 -140.47094727 729.19775391 C-138.11316087 719.5352725 -135.47523318 709.97975047 -132.64428711 700.44580078 C-131.96241522 698.14831354 -131.28631464 695.84918 -130.61083984 693.54980469 C-130.17692371 692.07965556 -129.74269154 690.60959967 -129.30810547 689.13964844 C-129.10707718 688.45645538 -128.90604889 687.77326233 -128.69892883 687.06936646 C-127.2794636 682.30111471 -127.2794636 682.30111471 -126.16357422 680.06933594 C-126.79521484 679.98296875 -127.42685547 679.89660156 -128.07763672 679.80761719 C-154.12891895 673.57509524 -180.35008365 656.18570221 -202.16357422 641.06933594 C-200.58969204 635.93927694 -197.39388806 632.32447279 -194.03857422 628.25683594 C-193.47525391 627.56396484 -192.91193359 626.87109375 -192.33154297 626.15722656 C-190.94766022 624.45669268 -189.55827871 622.76099599 -188.16357422 621.06933594 C-184.92580564 621.70184087 -182.65341957 622.85516105 -179.89794922 624.65136719 C-179.08970703 625.17150391 -178.28146484 625.69164062 -177.44873047 626.22753906 C-176.19382812 627.04641602 -176.19382812 627.04641602 -174.91357422 627.88183594 C-169.12799908 631.64654692 -163.40112664 635.10146825 -157.16357422 638.06933594 C-155.38522526 634.10417109 -153.60707628 630.13891665 -151.82910156 626.17358398 C-151.22596457 624.82850808 -150.62277576 623.48345542 -150.01953125 622.13842773 C-149.72804199 621.48849854 -149.43655273 620.83856934 -149.13623047 620.16894531 C-148.84752075 619.52524994 -148.55881104 618.88155457 -148.26135254 618.21835327 C-147.41065947 616.32035035 -146.5615131 614.42166042 -145.71240234 612.52294922 C-144.76439338 610.40905659 -143.81121145 608.29746251 -142.84912109 606.18994141 C-142.48367188 605.38572754 -142.11822266 604.58151367 -141.74169922 603.75292969 C-141.43135742 603.07673584 -141.12101562 602.40054199 -140.80126953 601.70385742 C-140.04242088 600.05121817 -140.04242088 600.05121817 -140.16357422 598.06933594 C-141.61352312 596.94024168 -141.61352312 596.94024168 -143.53857422 595.88964844 C-144.63383423 595.24745361 -144.63383423 595.24745361 -145.7512207 594.59228516 C-146.94533569 593.90030029 -146.94533569 593.90030029 -148.16357422 593.19433594 C-157.32594108 587.74290489 -165.79742377 581.66460059 -174.16357422 575.06933594 C-175.65824219 573.89564453 -175.65824219 573.89564453 -177.18310547 572.69824219 C-193.50802363 559.59626924 -209.45027673 544.73283658 -222.16357422 528.06933594 C-223.07990119 526.90500602 -223.9965919 525.7409623 -224.91357422 524.57714844 C-269.60028202 467.14912834 -290.78434974 391.64260448 -281.91357422 319.28027344 C-277.94570478 290.6023856 -270.68791568 263.6287754 -259.16357422 237.06933594 C-258.78974609 236.2058252 -258.41591797 235.34231445 -258.03076172 234.45263672 C-250.14051783 216.48317392 -240.01074182 199.70133517 -228.16357422 184.06933594 C-227.73222168 183.49521973 -227.30086914 182.92110352 -226.85644531 182.32958984 C-212.66755569 163.53021764 -195.92609226 145.32884965 -177.16357422 131.06933594 C-176.00036597 130.15454051 -174.83763823 129.23913388 -173.67529297 128.32324219 C-124.79555588 90.27153306 -63.9190575 69.87105106 -2.10107422 69.81933594 C-1.3656842 69.81866119 -0.63029419 69.81798645 0.12738037 69.81729126 C32.2179915 69.86351142 62.13663385 76.1733735 92.83642578 85.06933594 C98.11642578 71.53933594 103.39642578 58.00933594 108.83642578 44.06933594 C105.86642578 43.40933594 102.89642578 42.74933594 99.83642578 42.06933594 C98.14885092 41.59113445 96.46725129 41.09042277 94.79736328 40.55371094 C72.7322268 33.67500103 49.90610012 28.86369404 26.83642578 27.06933594 C25.21873291 26.93833496 25.21873291 26.93833496 23.56835938 26.8046875 C15.99337134 26.19358565 8.41624018 25.61716821 0.83642578 25.06933594 C0.13981904 21.09170699 -0.54433254 17.11203737 -1.22607422 13.13183594 C-1.42523438 11.99552734 -1.62439453 10.85921875 -1.82958984 9.68847656 C-2.01328125 8.60888672 -2.19697266 7.52929688 -2.38623047 6.41699219 C-2.55904541 5.41676025 -2.73186035 4.41652832 -2.90991211 3.38598633 C-2.99362061 2.6214917 -3.0773291 1.85699707 -3.16357422 1.06933594 C-2.16357422 0.06933594 -2.16357422 0.06933594 0 0 Z M-407.47607422 208.56933594 C-410.30469895 212.7598911 -410.57854409 216.08969749 -410.16357422 221.06933594 C-407.97116863 226.45899967 -405.68198901 229.15119693 -400.31591797 231.47949219 C-395.68359143 232.74896824 -391.82847539 231.75043187 -387.41357422 229.94433594 C-383.19271881 226.42695643 -381.37994593 222.83121989 -380.72607422 217.50683594 C-381.37973756 212.3709097 -382.85579326 209.27903332 -386.66357422 205.75683594 C-393.85696387 200.90129792 -401.70968101 202.33539733 -407.47607422 208.56933594 Z M248.46142578 563.81933594 C246.16942464 568.40333821 245.9044294 572.19762209 247.46142578 576.99511719 C249.53471708 581.31755932 252.30666166 583.59652379 256.69189453 585.46777344 C260.35613273 586.49562896 263.27197922 586.42112206 266.83642578 585.06933594 C270.43184998 582.82307878 273.07418281 580.27622065 275.33642578 576.69433594 C276.34338628 571.4077933 275.53720888 567.4449472 273.14892578 562.75683594 C270.13202562 559.25070872 267.50167862 557.5011069 262.88330078 556.75292969 C256.3579519 556.36688805 252.70471771 558.90605054 248.46142578 563.81933594 Z " fill="#E9CA3C" transform="translate(512.16357421875,158.9306640625)"/>
<path d="M0 0 C0 8.25 0 16.5 0 25 C-7.32102183 25.98477462 -14.64016367 26.96370709 -21.97265625 27.859375 C-102.62805994 37.86787467 -181.33750086 66.58327959 -247 115 C-244.4734206 119.57065231 -241.31613478 123.43238 -238 127.4375 C-236.83113782 128.8625489 -235.6631855 130.28834453 -234.49609375 131.71484375 C-233.91069824 132.4301123 -233.32530273 133.14538086 -232.72216797 133.88232422 C-226.30091471 141.7782628 -220.05374551 149.81926282 -214 158 C-210.20462045 157.36594836 -207.69818237 155.61162984 -204.5625 153.4375 C-186.55445046 141.19986537 -167.41552572 130.81472529 -148 121 C-147.26523437 120.62407715 -146.53046875 120.2481543 -145.7734375 119.86083984 C-101.41883224 97.48917893 -49.23826391 85.92478915 0 82 C0 90.25 0 98.5 0 107 C-2.784375 107.37125 -5.56875 107.7425 -8.4375 108.125 C-36.34181935 112.0677066 -64.60598971 116.91079568 -91.21289062 126.4777832 C-93 127 -93 127 -96 127 C-95.68053406 127.89202873 -95.68053406 127.89202873 -95.35461426 128.80207825 C-93.14299962 134.98037287 -90.93798192 141.1609927 -88.73681641 147.34301758 C-87.91397074 149.65124099 -87.08943304 151.95886195 -86.26318359 154.26586914 C-85.07727022 157.57802697 -83.89741729 160.89228902 -82.71875 164.20703125 C-82.34689575 165.2414888 -81.9750415 166.27594635 -81.59191895 167.3417511 C-81.08138977 168.78290535 -81.08138977 168.78290535 -80.56054688 170.25317383 C-80.2585437 171.09922684 -79.95654053 171.94527985 -79.64538574 172.81697083 C-79 175 -79 175 -79 178 C-77.29070312 177.43732422 -77.29070312 177.43732422 -75.546875 176.86328125 C-66.78267511 174.01573428 -58.00113887 171.3728679 -49.0625 169.125 C-48.21719727 168.91012939 -47.37189453 168.69525879 -46.50097656 168.47387695 C-45.70788086 168.27882568 -44.91478516 168.08377441 -44.09765625 167.8828125 C-43.40164307 167.71152832 -42.70562988 167.54024414 -41.98852539 167.36376953 C-40 167 -40 167 -36 167 C-34.02 178.88 -34.02 178.88 -32 191 C-35.82227646 192.27409215 -39.54773758 193.46433065 -43.421875 194.515625 C-93.37836226 208.19522456 -141.08210314 230.18901817 -179.48828125 265.69921875 C-181.55273684 267.5902986 -183.64633949 269.42549287 -185.765625 271.25390625 C-196.79969256 280.8863316 -207.017572 291.43716542 -216 303 C-216.90037875 304.09124555 -217.80425103 305.17961469 -218.7109375 306.265625 C-259.63289484 355.62552091 -284.2654806 418.32016249 -290 482 C-290.11085938 483.13824219 -290.22171875 484.27648437 -290.3359375 485.44921875 C-293.86558687 528.04350104 -289.26037971 573.93486517 -274 614 C-272.56720703 614.03867188 -272.56720703 614.03867188 -271.10546875 614.078125 C-255.50169598 614.76263746 -242.14429394 619.69007961 -231 631 C-220.21070212 643.01121836 -216.48399764 656.51465584 -216.75390625 672.328125 C-217.71074157 686.6047155 -224.59066762 699.34896336 -235 709 C-237.87293513 711.26707806 -240.82453496 713.18626592 -244 715 C-244.62261719 715.37769531 -245.24523437 715.75539063 -245.88671875 716.14453125 C-258.42561386 723.16315807 -273.20705983 723.54418267 -286.8359375 720.03125 C-301.49012728 715.25506963 -312.65923828 704.4621708 -319.75 691 C-325.74069596 679.17835997 -325.96327641 663.55766104 -322.4375 650.9375 C-318.30991466 639.64095065 -310.99407015 629.78686337 -301 623 C-300.34 623 -299.68 623 -299 623 C-299.2630896 622.17653076 -299.2630896 622.17653076 -299.53149414 621.33642578 C-328.45731914 529.56463113 -320.34395844 431.56694345 -275.953125 346.0703125 C-263.31636452 322.22289645 -247.99550381 300.11972524 -230 280 C-229.34475342 279.25790283 -228.68950684 278.51580566 -228.0144043 277.7512207 C-222.36046174 271.39139426 -216.46696919 265.31577309 -210.4375 259.3125 C-209.54353516 258.41466797 -208.64957031 257.51683594 -207.72851562 256.59179688 C-200.6466131 249.52025559 -193.32811716 242.90353426 -185.4375 236.75 C-184.84090576 236.28456787 -184.24431152 235.81913574 -183.62963867 235.33959961 C-181.75785765 233.8867538 -179.88050916 232.44152749 -178 231 C-177.40799805 230.5457666 -176.81599609 230.0915332 -176.20605469 229.62353516 C-153.65240999 212.43242555 -128.83309047 198.61787085 -103 187 C-105.63167165 176.02783621 -109.70540781 165.56687091 -113.6105957 155.00292969 C-114.49820689 152.59711724 -115.38012983 150.18927438 -116.26171875 147.78125 C-116.53666672 147.0437854 -116.81161469 146.3063208 -117.09489441 145.54650879 C-118.18703867 142.56097065 -119 140.20594156 -119 137 C-157.06256386 151.68718497 -193.5016728 173.56772419 -224.22070312 200.49169922 C-225.56221526 201.62889214 -226.93038169 202.73474987 -228.31054688 203.82470703 C-235.95943635 209.89063097 -242.85185238 216.54493007 -249.72558594 223.46484375 C-251.62215939 225.37214332 -253.52920305 227.26850059 -255.4375 229.1640625 C-262.42101362 236.14003067 -268.87672346 243.25027922 -275 251 C-275.94590692 252.11406142 -276.89903562 253.22208525 -277.86328125 254.3203125 C-284.15928668 261.53009225 -289.74055199 269.08116867 -295.17578125 276.95703125 C-298.00803854 281.05474391 -300.98400697 285.03625582 -304 289 C-308.73474097 287.3003494 -312.96167111 284.86340973 -317.3125 282.375 C-318.42334961 281.74464844 -318.42334961 281.74464844 -319.55664062 281.1015625 C-321.37269011 280.07051505 -323.18656533 279.03563954 -325 278 C-324.50377155 273.25924605 -322.28012764 270.15018576 -319.5 266.4375 C-319.04858643 265.82181152 -318.59717285 265.20612305 -318.13208008 264.57177734 C-317.20356975 263.30871705 -316.27103036 262.04860867 -315.33447266 260.79150391 C-314.14490833 259.19453665 -312.96803884 257.58813102 -311.79296875 255.98046875 C-302.38475731 243.22090927 -292.33121734 231.07232624 -281.44970703 219.546875 C-279.51265773 217.47999316 -277.61014573 215.38277933 -275.70678711 213.28491211 C-268.21509597 205.03762404 -260.46997785 197.24068282 -252 190 C-250.07785242 188.34347182 -248.15778141 186.68457389 -246.23876953 185.02441406 C-244.8907023 183.85829259 -243.54145252 182.69353651 -242.19091797 181.53027344 C-241.56459473 180.98918945 -240.93827148 180.44810547 -240.29296875 179.890625 C-239.7311792 179.40625977 -239.16938965 178.92189453 -238.59057617 178.42285156 C-237.00109311 177.00097784 -235.49316029 175.52217284 -234 174 C-234.54974487 173.33750244 -234.54974487 173.33750244 -235.1105957 172.66162109 C-241.42421919 165.04509262 -247.72433153 157.42367488 -253.8125 149.625 C-257.21265476 145.27828201 -260.61233337 140.9322144 -264.0625 136.625 C-265.13177734 135.28308594 -265.13177734 135.28308594 -266.22265625 133.9140625 C-266.80917969 133.28242188 -267.39570313 132.65078125 -268 132 C-271.08267573 132 -272.22194647 133.8637419 -274.4375 135.9375 C-278.05120667 139.26481782 -281.72418533 142.43475434 -285.5625 145.5 C-289.95746724 149.05311436 -293.94236607 152.83328777 -297.8828125 156.87890625 C-299.87430728 158.87407538 -301.92379263 160.72753901 -304.0625 162.5625 C-310.18280342 167.83276128 -315.71433925 173.56524099 -320.96875 179.69140625 C-323.00152127 182.00172898 -325.09826038 184.24371553 -327.20825195 186.48339844 C-333.43852007 193.11717877 -339.12235376 200.03887924 -344.65429688 207.26025391 C-345.96428489 208.95382694 -347.29681763 210.6261499 -348.640625 212.29296875 C-366.47072755 234.46189332 -381.34734955 258.50072928 -394.70117188 283.57861328 C-395.82731738 285.67807025 -396.97501887 287.76214525 -398.140625 289.83984375 C-428.72680015 345.10632691 -443.41295398 408.67641077 -450 471 C-458.25 471 -466.5 471 -475 471 C-472.52242135 380.9813091 -435.95344851 288.62106124 -384 216 C-383.20190918 214.88310791 -383.20190918 214.88310791 -382.38769531 213.74365234 C-371.9845156 199.25543871 -361.00092 185.27110857 -348.9375 172.12109375 C-347.10363816 170.11345871 -345.32991725 168.06607803 -343.5625 166 C-340.00262178 161.9007463 -336.1446464 158.12743733 -332.28125 154.31640625 C-330.52382326 152.53189588 -328.92252239 150.77304356 -327.375 148.8125 C-324.85137097 145.82399193 -322.1318609 143.43749385 -319.16015625 140.91015625 C-316.89348004 138.90580785 -314.79636736 136.7942285 -312.6875 134.625 C-308.61478317 130.4963008 -304.27073263 126.86705996 -299.74609375 123.24609375 C-297.11914983 121.09745541 -294.61931675 118.86276942 -292.125 116.5625 C-286.88065003 111.78579907 -281.33132885 107.49600771 -275.65649414 103.24609375 C-274.55586995 102.41815184 -273.46120686 101.58222312 -272.37280273 100.73828125 C-265.26003874 95.27691972 -257.76867438 90.34988503 -250.3125 85.375 C-249.57735168 84.88445129 -248.84220337 84.39390259 -248.08477783 83.88848877 C-236.33120058 76.06416065 -224.46565926 68.64819154 -212 62 C-211.07574219 61.5035498 -210.15148437 61.00709961 -209.19921875 60.49560547 C-202.50782553 56.91364983 -195.77151914 53.42780333 -189 50 C-188.23107422 49.60748047 -187.46214844 49.21496094 -186.66992188 48.81054688 C-131.58619301 20.89948855 -62.21555728 0 0 0 Z M-289.30859375 651.046875 C-293.80319789 656.23694907 -296.09103462 662.12038392 -296 669 C-295.31539062 677.28814334 -291.46089797 682.63017829 -285.625 688.3125 C-279.49353906 692.25415346 -273.30043919 694.12791166 -266 693 C-257.80639909 690.39355273 -252.50817043 686.27906095 -248.015625 679 C-245.16053773 673.3776743 -244.97716423 666.52433631 -246.71875 660.5234375 C-249.9218544 652.79982285 -255.39802025 647.46149691 -263 644 C-272.92316916 641.33649797 -281.97803278 643.9976891 -289.30859375 651.046875 Z " fill="#E9CA3C" transform="translate(476,0)"/>
<path d="M0 0 C3.42094514 17.94321254 6.2215566 35.81557009 8 54 C8.09571289 54.8569043 8.19142578 55.71380859 8.29003906 56.59667969 C9.38439942 67.44222226 9.24393488 78.36104607 9.25 89.25 C9.25067474 90.33858307 9.25134949 91.42716614 9.25204468 92.54873657 C9.19303406 152.6816618 -3.08176682 212.18175984 -28 267 C-28.45842285 268.01030273 -28.9168457 269.02060547 -29.38916016 270.06152344 C-40.02151097 293.26919273 -52.4726366 315.02101567 -67 336 C-67.4547168 336.66322266 -67.90943359 337.32644531 -68.37792969 338.00976562 C-74.19143671 346.47308792 -80.49353902 354.48161368 -87.01953125 362.40625 C-87.51662598 363.01210938 -88.0137207 363.61796875 -88.52587891 364.2421875 C-89.50660248 365.4116492 -90.50914736 366.56316012 -91.53271484 367.6953125 C-92.76006711 369.06947319 -93.89046193 370.52906952 -95 372 C-93.90303373 375.2908988 -93.15198144 375.96796717 -90.5625 378.125 C-87.37328247 380.83100275 -84.22841403 383.57065115 -81.125 386.375 C-80.28453125 387.13296875 -79.4440625 387.8909375 -78.578125 388.671875 C-76.859375 390.22395833 -75.140625 391.77604167 -73.421875 393.328125 C-71.74573639 394.83973467 -70.06740626 396.34891841 -68.38671875 397.85546875 C-66.83990248 399.24532494 -65.30033082 400.64330354 -63.76953125 402.05078125 C-63.08246094 402.67339844 -62.39539063 403.29601562 -61.6875 403.9375 C-61.09324219 404.48277344 -60.49898437 405.02804687 -59.88671875 405.58984375 C-57.70952293 407.21710605 -55.55113854 408.09107457 -53 409 C-45.71563943 400.53850892 -38.67425404 391.95338464 -32 383 C-31.26958496 382.02450195 -31.26958496 382.02450195 -30.52441406 381.02929688 C-16.54017265 362.27188536 -4.29960613 342.47350399 7 322 C7.42732422 321.23187988 7.85464844 320.46375977 8.29492188 319.67236328 C20.25470357 298.0617281 29.75795508 275.25725546 38 252 C38.46116211 250.71512695 38.46116211 250.71512695 38.93164062 249.40429688 C53.7037947 207.98433545 60.99926249 164.67471783 65 121 C73.25 121 81.5 121 90 121 C86.95574971 205.47794553 59.30554797 291.17870564 -37.0625 429.87890625 C-38.89636184 431.88654129 -40.67008275 433.93392197 -42.4375 436 C-45.97691064 440.07693795 -49.8034614 443.83833482 -53.66796875 447.60546875 C-56.03961341 449.96168941 -56.03961341 449.96168941 -58.07421875 452.6015625 C-59.81182323 454.76563786 -61.49645599 456.42579017 -63.625 458.1875 C-66.85687363 460.94146255 -69.84803582 463.83512815 -72.8125 466.875 C-77.09595419 471.21101191 -81.61097487 475.06703696 -86.37109375 478.8671875 C-88.70319947 480.75920789 -90.91703686 482.71646169 -93.125 484.75 C-124.32145012 512.73260623 -161.7594445 534.3003311 -199 553 C-199.79180664 553.40057617 -200.58361328 553.80115234 -201.39941406 554.21386719 C-258.3463302 582.83239614 -322.78294656 597.33469274 -386 602 C-386 593.75 -386 585.5 -386 577 C-379.02076992 575.97810506 -372.05372027 574.98449295 -365.046875 574.17578125 C-314.55414482 568.28116421 -266.48471982 554.5961326 -220 534 C-219.20062012 533.64728027 -218.40124023 533.29456055 -217.57763672 532.93115234 C-171.06539827 512.23274307 -127.45483833 482.20917167 -90.44482422 447.34765625 C-88.20417622 445.25769731 -85.91349387 443.22477574 -83.625 441.1875 C-76.46837861 435.28924344 -76.46837861 435.28924344 -71 428 C-71.59006836 427.7321167 -72.18013672 427.4642334 -72.78808594 427.18823242 C-75.02184458 425.98826517 -76.56273425 424.73387987 -78.390625 422.98828125 C-79.01356445 422.39885742 -79.63650391 421.80943359 -80.27832031 421.20214844 C-80.92897461 420.57856445 -81.57962891 419.95498047 -82.25 419.3125 C-83.6033254 418.03166262 -84.95748265 416.75170356 -86.3125 415.47265625 C-87.27736328 414.5602417 -87.27736328 414.5602417 -88.26171875 413.62939453 C-90.79354256 411.25616531 -93.3988035 408.97826659 -96.03515625 406.72265625 C-97.63198808 405.32265061 -99.19454296 403.88362059 -100.74609375 402.43359375 C-101.23239258 401.98016602 -101.71869141 401.52673828 -102.21972656 401.05957031 C-103.6133154 399.75684754 -105.00021255 398.44697714 -106.38671875 397.13671875 C-108.89673577 395.08443279 -110.93956904 393.99808649 -114 393 C-114.70125 393.71285156 -115.4025 394.42570312 -116.125 395.16015625 C-120.92095263 400.0113031 -125.72483938 404.77328801 -130.921875 409.19921875 C-133.42157728 411.36531414 -135.82794328 413.62248725 -138.25 415.875 C-153.73983896 430 -153.73983896 430 -158 430 C-160.16505016 427.09526305 -161.87851174 423.88557965 -163.6875 420.75 C-164.21150391 419.87730469 -164.73550781 419.00460937 -165.27539062 418.10546875 C-165.76587891 417.26113281 -166.25636719 416.41679688 -166.76171875 415.546875 C-167.21506592 414.77182617 -167.66841309 413.99677734 -168.13549805 413.19824219 C-169.16313707 410.58517759 -169.10161691 409.55769312 -168 407 C-165.95975044 405.04230389 -163.94079616 403.27215056 -161.75 401.5 C-160.45287357 400.41722293 -159.15733298 399.3325436 -157.86328125 398.24609375 C-157.20924316 397.69937012 -156.55520508 397.15264648 -155.88134766 396.58935547 C-146.90917864 389.00970061 -138.58500459 380.70115946 -130.25 372.4375 C-129.374646 371.57519775 -128.49929199 370.71289551 -127.59741211 369.82446289 C-122.37966717 364.6136256 -117.58385415 359.21747235 -112.97412109 353.4621582 C-111.39763717 351.49594001 -109.79770088 349.57396741 -108.13671875 347.6796875 C-101.3088244 339.86082284 -95.27108143 331.62873997 -89.41259766 323.06396484 C-88.12170483 321.17782452 -86.81799183 319.30128005 -85.51171875 317.42578125 C-62.15143041 283.52214303 -45.35346591 246.16151055 -33 207 C-33.55405518 206.86102295 -34.10811035 206.7220459 -34.67895508 206.57885742 C-44.81714334 203.92853626 -54.73404569 200.57412854 -64.6875 197.3125 C-66.56437377 196.69962672 -68.44132627 196.08699449 -70.31835938 195.47460938 C-74.87981906 193.98585158 -79.44019967 192.49383197 -84 191 C-84.26176025 192.01598267 -84.26176025 192.01598267 -84.52880859 193.05249023 C-86.24048112 199.53159167 -88.25687096 205.79598905 -90.625 212.0625 C-90.93695312 212.90232422 -91.24890625 213.74214844 -91.5703125 214.60742188 C-93.82874504 220.65749008 -93.82874504 220.65749008 -95 223 C-99.67184549 221.29863895 -103.91809237 218.97387664 -108.25 216.5625 C-108.9821875 216.16740234 -109.714375 215.77230469 -110.46875 215.36523438 C-111.51289062 214.78418945 -111.51289062 214.78418945 -112.578125 214.19140625 C-113.21137695 213.84279541 -113.84462891 213.49418457 -114.49707031 213.13500977 C-116 212 -116 212 -117 209 C-116.27419676 206.84384812 -115.43912973 204.72435742 -114.5625 202.625 C-106.66908973 182.61403619 -101.84100135 161.30819705 -98.49169922 140.10351562 C-98.16803035 138.06057688 -97.82889961 136.02001815 -97.47314453 133.98242188 C-96.99748943 131.22223013 -96.58217021 128.46027804 -96.1875 125.6875 C-95.972146 124.48758423 -95.972146 124.48758423 -95.75244141 123.26342773 C-95.46920848 120.91849301 -95.35803805 119.27720255 -96 117 C-97.84232758 115.05588636 -99.70838915 113.69662922 -101.97485352 112.27563477 C-108.12927054 108.39898269 -111.28029925 101.84201798 -113 95 C-114.10880433 85.23356186 -113.12906026 76.92703081 -107.45703125 68.78515625 C-102.04144434 62.1303046 -95.51719153 57.58795096 -87 56 C-77.09576971 54.99252743 -67.47712633 57.21009787 -59.55859375 63.4765625 C-52.59935191 70.27882896 -49.25045404 78.95598014 -48.90625 88.63671875 C-49.40985399 96.65661237 -52.15390204 105.31190469 -58 111 C-62.15640458 114.13458977 -65.88618758 116.83825772 -71 118 C-70.97824707 118.56017822 -70.95649414 119.12035645 -70.93408203 119.69750977 C-70.77489628 127.24670456 -71.74810485 134.48480691 -72.875 141.9375 C-73.13603516 143.73477539 -73.13603516 143.73477539 -73.40234375 145.56835938 C-74.45769934 152.74086863 -75.64842933 159.87742267 -77 167 C-75.712146 167.26804443 -74.42429199 167.53608887 -73.09741211 167.81225586 C-68.10720763 168.92322646 -63.2939402 170.40513674 -58.44140625 172.00390625 C-57.57104233 172.28725327 -56.70067841 172.57060028 -55.80393982 172.86253357 C-53.98233665 173.45643071 -52.16138377 174.05232586 -50.34106445 174.65014648 C-47.54719693 175.56752483 -44.75133288 176.47859893 -41.95507812 177.38867188 C-40.17956903 177.96838729 -38.40417419 178.54845277 -36.62890625 179.12890625 C-35.79251114 179.40182999 -34.95611603 179.67475372 -34.09437561 179.95594788 C-28.23374102 181.88312949 -28.23374102 181.88312949 -26 183 C-25.82694336 181.84359009 -25.82694336 181.84359009 -25.65039062 180.66381836 C-24.75364169 174.74500957 -23.81289946 168.83829497 -22.78125 162.94140625 C-22.57113281 161.72904297 -22.36101562 160.51667969 -22.14453125 159.26757812 C-21.7207786 156.83164242 -21.291257 154.39670197 -20.85546875 151.96289062 C-17.4025825 131.84929865 -16.62388311 111.81527529 -16.6875 91.4375 C-16.68973572 89.66025543 -16.68973572 89.66025543 -16.6920166 87.84710693 C-16.73221356 70.05035211 -17.24672571 52.61150933 -20 35 C-20.17644043 33.86900879 -20.35288086 32.73801758 -20.53466797 31.57275391 C-21.51105201 25.43364265 -22.54593654 19.30895069 -23.68041992 13.19702148 C-24 11 -24 11 -24 7 C-20.56835801 5.63064072 -17.12888119 4.28217537 -13.6875 2.9375 C-12.71103516 2.54755859 -11.73457031 2.15761719 -10.72851562 1.75585938 C-9.79072266 1.39169922 -8.85292969 1.02753906 -7.88671875 0.65234375 C-6.59060669 0.14175415 -6.59060669 0.14175415 -5.26831055 -0.37915039 C-3 -1 -3 -1 0 0 Z M-92.9375 78.625 C-95.49547822 82.81078254 -96.29808457 86.1166734 -96 91 C-94.17525555 96.37285867 -91.05197929 99.47401035 -86 102 C-81.78980462 102.43011819 -78.11307145 102.4699635 -74.1875 100.8125 C-71.13766632 98.28549495 -68.77540717 95.55081434 -67 92 C-66.49078814 85.88945765 -66.91147756 82.86202669 -71 78 C-78.2117986 70.97798558 -85.8517995 72.29309742 -92.9375 78.625 Z " fill="#E9CA3C" transform="translate(932,420)"/>
<path d="M0 0 C-0.6338479 5.517155 -2.50564309 10.26747809 -4.5625 15.375 C-4.89185547 16.20644531 -5.22121094 17.03789062 -5.56054688 17.89453125 C-6.36844762 19.93184618 -7.1817011 21.96684442 -8 24 C-9.29550781 23.855625 -10.59101562 23.71125 -11.92578125 23.5625 C-62.25280383 18.19810233 -109.40926375 28.89134211 -150.0625 59.6875 C-150.75279297 60.20981201 -151.44308594 60.73212402 -152.15429688 61.27026367 C-156.79297825 64.86388672 -160.93225242 68.77694928 -165 73 C-170 78 -170 78 -171.5534668 79.48095703 C-176.0019625 83.78258943 -179.72864105 88.33813561 -183.3125 93.375 C-183.8708252 94.15665527 -184.42915039 94.93831055 -185.00439453 95.74365234 C-213.55101291 136.26958246 -224.59848184 184.80238097 -216.22265625 233.7578125 C-210.86577332 262.44643165 -198.8555556 287.90435195 -181.3125 311.0625 C-180.79018799 311.75279297 -180.26787598 312.44308594 -179.72973633 313.15429688 C-176.13611328 317.79297825 -172.22305072 321.93225242 -168 326 C-163 331 -163 331 -161.51904297 332.5534668 C-157.21741057 337.0019625 -152.66186439 340.72864105 -147.625 344.3125 C-146.84334473 344.8708252 -146.06168945 345.42915039 -145.25634766 346.00439453 C-104.73041754 374.55101291 -56.19761903 385.59848184 -7.2421875 377.22265625 C21.44643165 371.86577332 46.90435195 359.8555556 70.0625 342.3125 C70.75279297 341.79018799 71.44308594 341.26787598 72.15429688 340.72973633 C76.79297825 337.13611328 80.93225242 333.22305072 85 329 C90 324 90 324 91.5534668 322.51904297 C96.0019625 318.21741057 99.72864105 313.66186439 103.3125 308.625 C103.8708252 307.84334473 104.42915039 307.06168945 105.00439453 306.25634766 C133.04840045 266.44394645 144.58525785 218.38617093 136.52734375 170.171875 C132.32375306 147.12997047 123.97398103 126.70035175 112.1875 106.5625 C111.81447754 105.91700195 111.44145508 105.27150391 111.05712891 104.60644531 C108.86082886 100.84623745 108.86082886 100.84623745 105 99 C102.1295741 100.15179705 102.1295741 100.15179705 99 101.8125 C92.9811433 104.69166452 87.62849217 106.36110919 81 107 C80.2265625 107.0825 79.453125 107.165 78.65625 107.25 C64.66984799 107.99594144 50.89887057 102.55776737 40.28515625 93.74609375 C29.07336484 83.24241548 22.94243991 70.48631771 22 55.2109375 C22 38.69720726 27.55608043 25.82332485 38.6875 13.8125 C49.70364369 3.26603685 63.72956122 -1.46383808 78.7734375 -1.27734375 C93.99266389 0.03084641 106.42417761 5.89640144 117 17 C119.25755921 19.87097173 121.17595557 22.838696 123 26 C123.37898438 26.63550781 123.75796875 27.27101563 124.1484375 27.92578125 C131.26388384 40.84593381 131.64718464 55.4826021 127.8515625 69.4765625 C127 72 127 72 125.8359375 74.0234375 C124.68173068 76.75254334 125.10050177 78.20636608 126 81 C127.30179573 83.21137565 127.30179573 83.21137565 129 85.375 C158.94882761 126.93663832 170.09103272 180.5847834 163 231 C160.79382204 244.27725703 157.46988787 257.30822746 153 270 C152.59523438 271.15628906 152.19046875 272.31257813 151.7734375 273.50390625 C145.46119018 290.31810892 136.84969512 306.68227733 126 321 C125.2575 322.02480469 124.515 323.04960938 123.75 324.10546875 C118.98135095 330.5447136 113.8411679 336.51606576 108.375 342.375 C107.76575684 343.02895752 107.15651367 343.68291504 106.52880859 344.35668945 C77.05843166 375.43000792 37.56686128 394.47505989 -4 403 C-5.72476563 403.35384766 -5.72476563 403.35384766 -7.484375 403.71484375 C-59.67882529 412.60867421 -115.01412805 398.76737021 -158.09814453 368.52734375 C-202.54941622 336.57064923 -231.04599063 290.4107902 -242 237 C-242.35384766 235.27523437 -242.35384766 235.27523437 -242.71484375 233.515625 C-248.48351408 199.66153051 -244.3499634 164.22701729 -233 132 C-232.59523438 130.84371094 -232.19046875 129.68742188 -231.7734375 128.49609375 C-225.46062447 111.6803842 -216.84741725 95.32091938 -206 81 C-205.26910156 79.98679687 -204.53820312 78.97359375 -203.78515625 77.9296875 C-198.87391289 71.27785374 -193.52899768 65.1578502 -187.875 59.125 C-187.21814209 58.42342773 -186.56128418 57.72185547 -185.88452148 56.99902344 C-153.85730063 23.35184199 -108.17396363 1.606806 -62 -3 C-60.7728125 -3.12246094 -59.545625 -3.24492187 -58.28125 -3.37109375 C-38.81198277 -5.02355561 -19.15752493 -3.6699355 0 0 Z M55.59375 38.68359375 C51.48071341 44.66161016 50.35375108 51.41844067 51.5625 58.5 C53.31381547 65.3514301 58.04459266 71.26055818 64 75 C71.26304142 78.17157385 77.3903805 79.10029295 85 76.4375 C91.74515452 73.50571551 96.11577211 69.23836405 99.4375 62.6875 C102.05204582 56.02097407 102.00570229 49.81607543 99.3125 43.1875 C95.93387057 36.48910229 90.56655176 32.39424147 84 29 C72.45169185 25.44839266 63.08613907 29.85547138 55.59375 38.68359375 Z " fill="#E9CA3C" transform="translate(551,310)"/>
<path d="M0 0 C101.16078884 8.59307806 195.61031274 42.25509164 303.87890625 127.0625 C305.88654129 128.89636184 307.93392197 130.67008275 310 132.4375 C314.07693795 135.97691064 317.83833482 139.8034614 321.60546875 143.66796875 C323.96168941 146.03961341 323.96168941 146.03961341 326.6015625 148.07421875 C328.76563786 149.81182323 330.42579017 151.49645599 332.1875 153.625 C334.94146255 156.85687363 337.83512815 159.84803582 340.875 162.8125 C345.21101191 167.09595419 349.06703696 171.61097487 352.8671875 176.37109375 C354.75920789 178.70319947 356.71646169 180.91703686 358.75 183.125 C374.28889081 200.4485555 387.69447945 220.29190554 400 240 C400.69295166 241.09973145 400.69295166 241.09973145 401.39990234 242.22167969 C442.61546245 307.92354958 475 392.30041685 475 471 C466.75 471 458.5 471 450 471 C449.76925781 468.94265625 449.53851562 466.8853125 449.30078125 464.765625 C445.17157025 428.54966776 438.59592607 393.05132807 426.84130859 358.4765625 C426.01047893 356.03084685 425.20171601 353.57860499 424.39453125 351.125 C405.62727111 294.95284331 375.03463268 243.21823953 337 198 C336.52675293 197.43651855 336.05350586 196.87303711 335.56591797 196.29248047 C327.87225485 187.14662312 327.87225485 187.14662312 319.56640625 178.5625 C317.8225076 176.82295023 316.22819814 174.99478917 314.625 173.125 C308.97903062 166.59487434 302.8415254 160.62047992 296.2890625 155.0078125 C293.91907874 152.92902128 291.61525505 150.7911784 289.31225586 148.63891602 C283.42010636 143.13383581 277.40287221 137.91416829 271 133 C265.64744615 139.4888502 260.65102259 146.18496361 255.8046875 153.0546875 C253.73763554 155.97987465 251.63147508 158.87346948 249.5078125 161.7578125 C248.91572998 162.56541016 248.32364746 163.37300781 247.71362305 164.20507812 C246.54798633 165.79322811 245.37771851 167.37799156 244.20239258 168.95898438 C243.67025146 169.68666016 243.13811035 170.41433594 242.58984375 171.1640625 C242.11409912 171.80811035 241.63835449 172.4521582 241.14819336 173.11572266 C239.95140022 175.07975614 239.43171984 176.75256316 239 179 C240.49932062 180.35491884 241.99950054 181.70888678 243.5 183.0625 C244.3353125 183.81660156 245.170625 184.57070312 246.03125 185.34765625 C248.28751778 187.36345339 250.55711311 189.35834161 252.83984375 191.34375 C256.985771 194.96641913 261.03917078 198.679531 265.0625 202.4375 C265.73087891 203.05431641 266.39925781 203.67113281 267.08789062 204.30664062 C271.14307373 208.09384273 274.86920988 212.03498474 278.47924805 216.24780273 C280.18366516 218.21161741 281.98920222 220.02308744 283.875 221.8125 C288.17250186 226.06069973 291.92477708 230.66057835 295.69140625 235.37939453 C297.09849651 237.12198131 298.53115014 238.84110312 299.96875 240.55859375 C321.10654936 265.9350216 364 317.53331626 364 352 C360.73256344 353.3417678 357.46053092 354.67194359 354.1875 356 C353.25873047 356.3815625 352.32996094 356.763125 351.37304688 357.15625 C350.48037109 357.5171875 349.58769531 357.878125 348.66796875 358.25 C347.84578857 358.58515625 347.0236084 358.9203125 346.17651367 359.265625 C344 360 344 360 341 360 C340.64397705 359.21689453 340.2879541 358.43378906 339.92114258 357.62695312 C323.17061962 320.91670737 304.07083451 286.02283659 278 255 C276.56214542 253.20861788 275.12465442 251.41694388 273.6875 249.625 C265.59281675 239.76395116 256.74560995 230.65938811 247.75 221.625 C247.00564697 220.87597412 246.26129395 220.12694824 245.49438477 219.35522461 C240.82496299 214.69929078 236.01459157 210.28052389 231 206 C230.46036621 205.53335938 229.92073242 205.06671875 229.36474609 204.5859375 C211.74281984 189.36113215 192.96015922 175.9894023 173 164 C172.22591797 163.53480957 171.45183594 163.06961914 170.65429688 162.59033203 C129.80706568 138.23659439 63.66735624 105.75213401 14 110 C12.134473 112.34792119 12.134473 112.34792119 11.1328125 114.21484375 C6.56057062 121.4200663 -0.91495275 125.13081671 -9 127 C-18.33637755 128.28094572 -26.89088846 125.82661895 -34.8125 120.8125 C-41.80585055 115.36575582 -45.41828211 107.30890599 -46.75 98.75 C-47.49981433 90.63837229 -45.42608506 82.82227594 -41 76 C-38.5625 73.25 -38.5625 73.25 -36 71 C-35.29875 70.319375 -34.5975 69.63875 -33.875 68.9375 C-26.65094456 64.06911481 -18.65419793 61.86882137 -10 63 C-0.09060915 65.04060049 7.20812011 69.61073067 13 78 C13.7303491 79.9776336 14.41170175 81.9755619 15 84 C15.69738281 84.01417969 16.39476562 84.02835937 17.11328125 84.04296875 C62.50402022 86.09358822 109.10732253 102.93248484 150 122 C150.94746094 122.44053711 151.89492188 122.88107422 152.87109375 123.33496094 C175.34447435 133.90338992 197.2144585 146.97589329 217 162 C224.00758377 153.10307201 230.97628065 144.20111389 237.49902344 134.94042969 C241.54328553 129.20007773 245.75751765 123.59515788 250 118 C245.54243364 113.03567873 240.27444793 109.65738427 234.6875 106.0625 C233.6763916 105.40862305 232.6652832 104.75474609 231.62353516 104.08105469 C196.49742618 81.55917942 159.61645027 63.13043147 120 50 C118.82469727 49.60828613 117.64939453 49.21657227 116.43847656 48.81298828 C80.58281007 36.97661594 44.0093836 29.92991428 6.45654297 26.30957031 C4 26 4 26 0 25 C0 16.75 0 8.5 0 0 Z M-26.25 86.5625 C-29.17699062 90.63937979 -29.66581336 94.0433894 -29 99 C-26.76448472 103.30543683 -24.2420995 106.60229159 -20 109 C-14.94130945 109.83040481 -11.15198577 109.58646548 -6.5625 107.25 C-1.9043778 103.15994149 -0.4249793 100.43098731 0.0625 94.24609375 C-0.0325534 90.83011212 -1.06075206 88.77958871 -3 86 C-7.71397179 81.74592789 -10.53990343 80.69558755 -16.75 80.78515625 C-21.21276233 81.21128807 -23.38161273 83.2957256 -26.25 86.5625 Z " fill="#E9CA3C" transform="translate(546,0)"/>
</svg>
