<?xml version="1.0" encoding="UTF-8"?>
<svg version="1.1" xmlns="http://www.w3.org/2000/svg" width="6034" height="1522">
<path d="M0 0 C3.58484083 -0.00216927 7.16936442 -0.02032909 10.75415039 -0.03930664 C30.79778248 -0.08879794 50.72876528 0.97848716 70.56860352 3.93530273 C71.71433838 4.10376709 72.86007324 4.27223145 74.04052734 4.44580078 C96.01522292 7.79655753 117.55959916 12.71010976 138.81860352 19.18530273 C139.69323242 19.44891602 140.56786133 19.7125293 141.46899414 19.98413086 C185.19451643 33.33262619 226.8584234 54.95849469 262.81860352 83.18530273 C263.6268457 83.81307617 264.43508789 84.44084961 265.26782227 85.08764648 C274.61350491 92.44680721 284.00207727 100.03861544 292.25610352 108.62280273 C293.9892595 110.35595872 295.82048999 111.9173632 297.69360352 113.49780273 C301.60533083 116.87645396 304.99818774 120.58442682 308.40844727 124.46264648 C310.50456252 126.8305433 312.64525893 129.14680909 314.80908203 131.45263672 C366.08397276 186.36224902 395.68244621 258.87392289 407.81860352 332.18530273 C408.05256836 333.58039063 408.05256836 333.58039063 408.29125977 335.00366211 C422.85163166 424.5302731 406.08177374 522.60591459 340.75610352 632.56030273 C339.12459185 634.7816478 337.48227595 636.98853309 335.81860352 639.18530273 C335.03235596 640.23210205 335.03235596 640.23210205 334.23022461 641.30004883 C327.36029452 650.41490047 320.28066537 659.16423319 312.41625977 667.43920898 C310.31282429 669.66284077 308.29806726 671.91537437 306.31860352 674.24780273 C299.1474352 682.52357644 291.16220671 690.1094555 282.81860352 697.18530273 C281.86211914 698.03092773 280.90563477 698.87655273 279.92016602 699.74780273 C241.54448757 733.52852133 195.37274319 759.35637126 146.81860352 775.18530273 C145.27947353 775.70072627 143.74041061 776.2163501 142.20141602 776.73217773 C115.50532386 785.54902855 87.96317178 791.17087423 60.06860352 794.43530273 C59.00431122 794.55992889 59.00431122 794.55992889 57.91851807 794.68707275 C-37.593071 805.72545937 -136.22507338 787.15460122 -248.18139648 717.18530273 C-248.80304687 716.71527832 -249.42469727 716.24525391 -250.06518555 715.76098633 C-256.93758363 710.53907523 -263.58098376 705.06956197 -270.11889648 699.43530273 C-270.7217749 698.91645508 -271.32465332 698.39760742 -271.94580078 697.86303711 C-275.63731756 694.64439847 -279.13710726 691.29011497 -282.55664062 687.78369141 C-284.19592446 686.17101053 -285.90279529 684.70411939 -287.68139648 683.24780273 C-290.95934787 680.49666497 -293.6736134 677.43474726 -296.43920898 674.17749023 C-298.07213291 672.31024538 -299.77068787 670.59267877 -301.55639648 668.87280273 C-305.67840164 664.80551446 -309.24161526 660.33398193 -312.85668945 655.81762695 C-314.26775072 654.07889573 -315.70796286 652.36764695 -317.15405273 650.65795898 C-326.04915127 640.06222615 -333.71285955 628.8198791 -341.18139648 617.18530273 C-341.57665527 616.5762207 -341.97191406 615.96713867 -342.37915039 615.33959961 C-377.78500176 560.64412204 -396.61393246 496.74707243 -402.18139648 432.18530273 C-402.25342285 431.36868164 -402.32544922 430.55206055 -402.3996582 429.71069336 C-406.94292909 375.48066951 -399.82715182 319.8456972 -383.18139648 268.18530273 C-382.75455566 266.85112305 -382.75455566 266.85112305 -382.3190918 265.48999023 C-366.95656813 218.06255756 -341.51619021 171.15196048 -307.34155273 134.52124023 C-305.55491598 132.58921712 -303.84209591 130.62428716 -302.13061523 128.62670898 C-297.77162459 123.6317297 -293.11700357 118.93484264 -288.4309082 114.24951172 C-286.94246411 112.75888658 -285.46222372 111.26043256 -283.98217773 109.76147461 C-277.7080202 103.45068964 -271.14864403 97.73495685 -264.18139648 92.18530273 C-262.96807487 91.16123593 -261.75908586 90.13199187 -260.55639648 89.09545898 C-243.40668796 74.52161597 -223.88480082 62.01866918 -204.18139648 51.18530273 C-202.95549805 50.50274414 -202.95549805 50.50274414 -201.70483398 49.80639648 C-168.64310088 31.52003968 -132.11011813 18.17858609 -95.18139648 10.18530273 C-94.18221191 9.96680664 -93.18302734 9.74831055 -92.15356445 9.52319336 C-73.98982515 5.62217928 -55.65246638 3.09884349 -37.18139648 1.18530273 C-36.15119385 1.07855225 -35.12099121 0.97180176 -34.05957031 0.86181641 C-22.73274686 -0.12232462 -11.36060584 -0.000766 0 0 Z M-93.18139648 267.18530273 C-94.01928711 267.79760742 -94.85717773 268.40991211 -95.72045898 269.04077148 C-128.74833312 294.26890335 -149.25878217 333.4651305 -155.26733398 374.18530273 C-156.30759923 382.27658916 -156.53605112 390.28785321 -156.49389648 398.43530273 C-156.49240601 399.1535321 -156.49091553 399.87176147 -156.48937988 400.61175537 C-156.4469518 412.02459377 -155.75818777 423.03956974 -153.18139648 434.18530273 C-152.90295898 435.44084961 -152.62452148 436.69639648 -152.33764648 437.98999023 C-145.12709604 467.39163128 -131.11575735 492.46511751 -110.18139648 514.18530273 C-109.46725586 514.96260742 -108.75311523 515.73991211 -108.01733398 516.54077148 C-79.40676268 546.8122561 -36.24934652 558.91794095 4.14868164 560.13745117 C47.0348905 560.90607745 88.96135789 544.94093722 120.04321289 515.48193359 C152.14438267 484.0347052 166.99546524 441.50037985 167.81860352 397.18530273 C167.68986418 353.96566817 150.64958136 313.10659409 120.81860352 282.18530273 C120.01938477 281.32291992 119.22016602 280.46053711 118.39672852 279.57202148 C112.34295845 273.2116062 105.72711571 268.18381825 98.47338867 263.30200195 C97.00766976 262.31289037 95.55830523 261.29963857 94.11157227 260.28295898 C68.56571179 242.97769866 35.56438894 235.70521351 5.13110352 235.87280273 C4.43716492 235.87462555 3.74322632 235.87644836 3.02825928 235.87832642 C-31.97512743 236.03228555 -64.98454327 246.35219465 -93.18139648 267.18530273 Z " fill="#FEFEFE" transform="translate(2792.181396484375,414.814697265625)"/>
<path d="M0 0 C21.0375 0.0825 42.075 0.165 63.75 0.25 C63.75 81.76 63.75 163.27 63.75 247.25 C41.97 247.58 20.19 247.91 -2.25 248.25 C-20.51297687 251.05968875 -33.94884138 256.48282729 -45.25 271.25 C-59.05727634 290.21460414 -58.55607658 313.28647577 -58.6640625 335.6796875 C-58.68103079 337.8496976 -58.69885106 340.01970121 -58.7175293 342.18969727 C-58.7803067 350.1680572 -58.82669287 358.14653933 -58.875 366.125 C-58.99875 383.98625 -59.1225 401.8475 -59.25 420.25 C-18.66 420.25 21.93 420.25 63.75 420.25 C63.75 489.22 63.75 558.19 63.75 629.25 C23.16 629.25 -17.43 629.25 -59.25 629.25 C-59.25 821.64 -59.25 1014.03 -59.25 1212.25 C-141.42 1212.25 -223.59 1212.25 -308.25 1212.25 C-308.25 1019.86 -308.25 827.47 -308.25 629.25 C-337.29 629.25 -366.33 629.25 -396.25 629.25 C-396.25 560.28 -396.25 491.31 -396.25 420.25 C-367.21 420.25 -338.17 420.25 -308.25 420.25 C-308.28480469 398.76003906 -308.28480469 398.76003906 -308.3203125 376.8359375 C-308.33053805 367.73046802 -308.34024953 358.62500274 -308.34765625 349.51953125 C-308.35949329 335.08413257 -308.37335912 320.64875735 -308.40087891 306.21337891 C-308.42091754 295.69712035 -308.4337411 285.18088095 -308.43817699 274.66460383 C-308.44076676 269.10492429 -308.44678157 263.54529952 -308.46146011 257.98563766 C-308.47521022 252.73422526 -308.47918812 247.48288927 -308.47621536 242.23146057 C-308.47675784 240.32175402 -308.48063008 238.41204444 -308.48841095 236.50235367 C-308.5575806 218.62245375 -307.58376228 200.74198402 -304 183.1875 C-303.78239014 182.10227051 -303.56478027 181.01704102 -303.34057617 179.89892578 C-293.23905327 130.98591138 -268.63119555 87.49923439 -229.25 56.25 C-228.23679688 55.43144531 -227.22359375 54.61289062 -226.1796875 53.76953125 C-218.29365934 47.47319127 -210.06132755 42.15645972 -201.25 37.25 C-200.41710449 36.78303711 -199.58420898 36.31607422 -198.72607422 35.83496094 C-136.56626959 1.30798424 -69.17555618 -0.38379918 0 0 Z " fill="#FEFEFE" transform="translate(5162.25,-0.25)"/>
<path d="M0 0 C43.77228718 -0.12566043 87.53935439 -0.01108099 131.310009 0.40571976 C134.65597436 0.43720336 138.00194972 0.46729077 141.34793091 0.49703979 C164.9113335 0.70892219 188.45563728 0.97061292 212 2 C212.03114367 14.02082203 212.05118735 26.04164315 212.0625 38.0625 C212.06378403 39.42038509 212.06378403 39.42038509 212.06509399 40.80570221 C212.08998924 70.7041506 211.86187084 100.5905696 211.35571289 130.48461914 C210.94118198 155.05983952 210.84747924 179.61333348 211.375 204.1875 C211.39678314 205.20703766 211.41856628 206.22657532 211.44100952 207.27700806 C213.28560041 291.15364201 216.10094819 386.82641312 268 472 C268.65871094 472.86109375 269.31742188 473.7221875 269.99609375 474.609375 C285.83446294 494.98622425 307.35530249 508.27084273 333 512 C347.44563544 512.80105187 361.97984226 512.81385348 376 509 C377.23234375 508.67128906 378.4646875 508.34257813 379.734375 508.00390625 C394.18994403 503.67023462 406.8677531 496.17195723 418 486 C418.76570313 485.30390625 419.53140625 484.6078125 420.3203125 483.890625 C473.99188675 432.65016736 479.73479797 340.69673704 484 271 C484.0525293 270.1656543 484.10505859 269.33130859 484.15917969 268.47167969 C485.79686477 241.62023912 486.10334775 214.63702223 486.12109375 187.7421875 C486.12191956 186.69764593 486.12274536 185.65310436 486.12359619 184.57691002 C486.12306243 155.90055404 485.34573531 127.23886868 484.60931396 98.57421875 C484.33549544 87.91246483 484.06766037 77.25056392 483.80709887 66.58847779 C483.69525304 62.02478239 483.57714832 57.46127761 483.45739746 52.89778137 C483.01096014 35.26098918 482.92273555 17.64099488 483 0 C528.96579536 -0.11527574 574.92614038 -0.01118508 620.89042664 0.40571976 C624.40655702 0.43722276 627.92269704 0.467304 631.43884277 0.49703979 C655.63778451 0.70402794 679.82119012 0.922578 704 2 C705.15207054 16.09601201 705.50291645 30.22835804 705.93628693 44.36070633 C706.00074639 46.46182931 706.06584625 48.56293174 706.13104248 50.66403198 C709.21657297 150.3919742 709.67818637 250.14156225 694 372 C693.89169861 372.74135193 693.78339722 373.48270386 693.67181396 374.246521 C686.9951877 419.87814826 677.18741575 464.88829015 663.02880859 508.79931641 C662.11358841 511.64661982 661.2193721 514.4993912 660.33203125 517.35546875 C640.31025713 580.75053282 607.21553223 641.61877087 563.29931641 691.52148438 C562.15376513 692.82502788 561.01935577 694.13834487 559.88671875 695.453125 C548.95609824 707.93313443 537.12342363 719.83860302 524 730 C522.2270241 731.47659784 520.45625427 732.95584787 518.6875 734.4375 C463.16426586 779.70185731 396.82225868 798.03633672 326 791 C258.14432848 783.05437102 197.95251906 751.89376826 149 705 C148.4730957 704.49645996 147.94619141 703.99291992 147.40332031 703.47412109 C140.7107194 697.04264133 134.76356615 690.26419614 129 683 C128.10273361 681.92501418 127.20287492 680.85218814 126.30078125 679.78125 C67.99011532 609.86381537 34.97008361 511.03965286 15 419 C14.84422485 418.27180054 14.68844971 417.54360107 14.5279541 416.79333496 C5.26368852 373.30436448 -0.81732044 329.34561639 -4 285 C-4.05951843 284.17981384 -4.11903687 283.35962769 -4.18035889 282.5145874 C-6.96861514 243.57158446 -7.2879028 204.21973916 -4.71191406 165.25927734 C-3.85504934 152.28849235 -3.69702151 139.50509081 -4.6191864 126.52844238 C-5.31192091 116.13827851 -5.28756765 105.72161747 -5.3125 95.3125 C-5.31611542 94.14721771 -5.31973083 92.98193542 -5.32345581 91.78134155 C-5.3482361 71.56147674 -4.43739872 51.47689066 -3.0625 31.3125 C-3.01676975 30.63722385 -2.97103951 29.96194771 -2.92392349 29.26620865 C-2.61878116 24.77683506 -2.30026108 20.28856817 -1.97265625 15.80078125 C-1.89029724 14.66165283 -1.80793823 13.52252441 -1.7230835 12.34887695 C-1.6431012 11.30344727 -1.5631189 10.25801758 -1.48071289 9.1809082 C-1.41187393 8.27202347 -1.34303497 7.36313873 -1.27210999 6.42671204 C-1.02261597 4.20169214 -0.6035765 2.15278036 0 0 Z " fill="#FEFEFE" transform="translate(5326,420)"/>
<path d="M0 0 C1.50723633 0.20882813 1.50723633 0.20882813 3.04492188 0.421875 C62.43329194 8.6819445 120.79610809 32.12054745 166 72 C166.58813477 72.5151416 167.17626953 73.0302832 167.78222656 73.56103516 C201.36223521 103.15971284 229.85560965 145.46394993 238 190 C225.90215808 193.43834584 213.7651172 196.59638962 201.53515625 199.52734375 C199.76791725 199.95340856 198.00074815 200.37976338 196.23364258 200.80638123 C191.49434321 201.9497599 186.75415431 203.08940684 182.01375198 204.22820282 C177.02815774 205.42642919 172.04326888 206.62758248 167.05834961 207.82861328 C165.00630285 208.32300209 162.95425512 208.81738683 160.90220642 209.31176758 C159.87517042 209.55920715 158.84813442 209.80664673 157.78997612 210.06158447 C154.63611121 210.82125709 151.48213411 211.58046252 148.32814026 212.33959961 C134.25758347 215.72718621 120.19209462 219.13521889 106.12956429 222.55596352 C99.82013124 224.0903593 93.51011487 225.62235504 87.20014095 227.1545248 C82.13369719 228.38500485 77.06766464 229.6171321 72.00247192 230.85275269 C67.25039812 232.01193549 62.49731674 233.16689078 57.74343872 234.3186512 C55.9970788 234.74259499 54.25110765 235.16814384 52.5055542 235.59539604 C50.12587496 236.17766319 47.74490381 236.75431819 45.36352539 237.32958984 C44.66974824 237.50079314 43.97597109 237.67199644 43.26117039 237.84838772 C40.03068826 238.62266677 37.35424693 239 34 239 C33.72027344 238.18917969 33.44054688 237.37835937 33.15234375 236.54296875 C26.17245667 217.26411666 14.38862405 203.28112036 -4.125 194.3125 C-35.11513859 180.05758482 -76.39771028 181.83514753 -107.9375 193.375 C-122.80626812 199.50625747 -133.08283575 206.40982936 -140.0703125 221.27734375 C-144.24733325 231.84155642 -144.23561634 242.99943304 -140 253.47265625 C-133.48943196 267.67169116 -120.26045171 274.93842694 -106.06396484 280.26611328 C-85.41744558 287.60742354 -63.63861435 291.40797693 -42.08984375 295.02734375 C-41.02699661 295.2059494 -39.96414948 295.38455505 -38.86909485 295.568573 C-37.78589462 295.75058258 -36.7026944 295.93259216 -35.58666992 296.12011719 C-9.78835252 300.45863246 15.62736003 305.62997518 41 312 C42.39613625 312.34742157 43.79229409 312.69475639 45.18847656 313.04199219 C72.85500276 319.95708043 100.62327653 328.08138382 127 339 C127.90008789 339.36915527 128.80017578 339.73831055 129.72753906 340.11865234 C151.3273028 349.04126172 171.99415765 359.33293031 191 373 C191.59506348 373.42007324 192.19012695 373.84014648 192.80322266 374.27294922 C210.29961202 386.74192656 225.70719761 402.73600428 237 421 C237.40750488 421.64855957 237.81500977 422.29711914 238.23486328 422.96533203 C258.46439552 455.57327493 264.36615753 494.21323723 265 532 C265.02835938 533.11632812 265.05671875 534.23265625 265.0859375 535.3828125 C265.12603096 538.26152312 265.08336362 541.12214289 265 544 C264.98211426 544.6796582 264.96422852 545.35931641 264.94580078 546.05957031 C263.10329399 609.18896345 240.42767796 666.81785773 194.95703125 710.984375 C193.01708213 712.72164287 191.0290474 714.36747419 189 716 C188.0203125 716.80566406 187.040625 717.61132812 186.03125 718.44140625 C171.42908326 730.29626919 155.68630016 740.34630223 139 749 C138.21351074 749.40959961 137.42702148 749.81919922 136.61669922 750.24121094 C86.56776479 775.97377566 28.73070043 786.34338185 -27 790 C-28.29969727 790.08685059 -29.59939453 790.17370117 -30.93847656 790.26318359 C-45.03523588 791.13865728 -59.12955743 791.24098976 -73.25 791.25 C-74.49723846 791.25133942 -75.74447693 791.25267883 -77.0295105 791.25405884 C-98.8168545 791.24901358 -120.33873205 790.30301957 -142 788 C-143.1765918 787.8772168 -144.35318359 787.75443359 -145.56542969 787.62792969 C-152.39981921 786.89415761 -159.20090983 786.00740764 -166 785 C-166.93634277 784.86513184 -167.87268555 784.73026367 -168.83740234 784.59130859 C-231.97203969 775.35287305 -296.76580071 753.89181142 -344.5546875 710.22265625 C-346.90151662 708.08951605 -349.29034586 706.01367927 -351.6875 703.9375 C-355.84349639 700.24085058 -359.46488663 696.2869248 -363 692 C-363.59039063 691.3090625 -364.18078125 690.618125 -364.7890625 689.90625 C-382.2045289 668.97902289 -404 636.16873979 -404 608 C-382.92108577 600.77885319 -361.66148625 594.15916535 -340.3865509 587.54414368 C-328.6667031 583.8992054 -316.95238644 580.23664329 -305.23826599 576.573349 C-303.54222659 576.04295719 -301.84618675 575.51256678 -300.15014648 574.98217773 C-298.87759963 574.58421572 -298.87759963 574.58421572 -297.57934475 574.17821407 C-291.54300335 572.29065087 -285.5061384 570.40476902 -279.46899414 568.51977539 C-276.03270961 567.4467941 -272.59643083 566.37379439 -269.16015625 565.30078125 C-267.88909877 564.90389697 -267.88909877 564.90389697 -266.59236336 564.49899483 C-256.02821093 561.20003743 -245.46672578 557.89275831 -234.90873718 554.5741272 C-229.87074387 552.99067756 -224.8315998 551.41090682 -219.79208469 549.83230782 C-215.81538396 548.58631068 -211.84023481 547.33551913 -207.86619663 546.08105755 C-204.88617037 545.14197011 -201.90385323 544.21021091 -198.921875 543.27734375 C-197.86234116 542.94115524 -196.80280731 542.60496674 -195.71116638 542.2585907 C-194.74526077 541.95790176 -193.77935516 541.65721283 -192.78417969 541.34741211 C-191.95070007 541.08528427 -191.11722046 540.82315643 -190.25848389 540.55308533 C-188 540 -188 540 -184 540 C-183.52691406 541.08796875 -183.05382813 542.1759375 -182.56640625 543.296875 C-172.31882303 566.30272559 -157.09440565 581.09130995 -133.5234375 590.69140625 C-98.03879276 603.87029316 -53.12971051 604.4144021 -18 590 C-17.09507812 589.63132812 -16.19015625 589.26265625 -15.2578125 588.8828125 C-4.92093482 584.21350638 4.05423119 575.90658484 8.6875 565.5 C9.10386719 564.5821875 9.52023437 563.664375 9.94921875 562.71875 C13.78263973 552.80030762 12.99064137 541.48764094 9.25390625 531.68359375 C3.39416374 519.14264949 -8.35690368 512.04854248 -20.93904114 507.2624054 C-31.90698764 503.33181868 -42.89167883 500.43240916 -54.3125 498.1875 C-55.96476305 497.85433282 -57.6170254 497.52116212 -59.26928711 497.18798828 C-76.10731773 493.83536825 -93.04532369 491.05144604 -109.9765625 488.21777344 C-147.40023932 481.94806541 -183.93020728 473.83106942 -220 462 C-220.93231445 461.69739258 -221.86462891 461.39478516 -222.82519531 461.08300781 C-278.31402965 442.94521142 -329.55596611 411.86434988 -357.22265625 358.8125 C-374.58867874 324.18714608 -379.21754535 284.903884 -379.25 246.625 C-379.25101212 245.52931702 -379.25101212 245.52931702 -379.25204468 244.41149902 C-379.17284642 189.78394613 -361.42325139 135.82184861 -324.08984375 95.2734375 C-322.14128585 93.15369788 -320.25242667 90.99516531 -318.375 88.8125 C-311.86588113 81.38199901 -304.74267075 75.1338041 -297 69 C-295.98679687 68.19304687 -294.97359375 67.38609375 -293.9296875 66.5546875 C-217.64170787 6.42570619 -107.64692962 -11.87847761 0 0 Z " fill="#FEFEFE" transform="translate(2065,422)"/>
<path d="M0 0 C80.85 0 161.7 0 245 0 C249.50002381 16.87508927 249.50002381 16.87508927 250.83566284 22.64863586 C250.98529974 23.29234627 251.13493663 23.93605667 251.28910798 24.59927344 C251.77565294 26.69495943 252.25870701 28.7914321 252.74169922 30.88793945 C253.09797513 32.42586065 253.45447051 33.96373102 253.8111639 35.50155544 C254.77620341 39.66501058 255.73815978 43.82917248 256.69953942 47.99347401 C257.73089229 52.45840717 258.76512896 56.92267239 259.79899597 61.38702393 C261.80030526 70.03096968 263.7989444 78.67553064 265.79664117 87.3203119 C268.11937905 97.37117475 270.44493191 107.42138567 272.77051747 117.47158992 C278.51860513 142.31325488 284.26034114 167.15638639 290 192 C290.3945083 193.70755006 290.78901666 195.41510011 291.18352509 197.12265015 C298.80567633 230.11412033 306.42005108 263.10737723 314.02636337 296.10250282 C318.10705001 313.80331075 322.19588282 331.50222172 326.29036522 349.19984245 C328.0061789 356.61701002 329.72089439 364.03443157 331.43563175 371.45184803 C333.03523623 378.37056453 334.63667872 385.28885217 336.23952389 392.20681858 C337.2050318 396.37602473 338.16876102 400.54564045 339.13196373 404.71537971 C339.57647451 406.63794828 340.0217539 408.56033931 340.46784401 410.48254204 C341.07154205 413.08425884 341.67259025 415.68657351 342.27294922 418.2890625 C342.45031648 419.05046319 342.62768373 419.81186388 342.81042576 420.59633732 C344 425.77179435 344 425.77179435 344 428 C344.99 428 345.98 428 347 428 C347.10562476 427.30528658 347.21124952 426.61057316 347.32007504 425.89480782 C348.63913038 417.57821561 350.42174268 409.41023563 352.34008789 401.21435547 C352.67898038 399.75390633 353.01753832 398.29337952 353.35579395 396.83278275 C354.08717771 393.67791882 354.82090837 390.5236134 355.55648422 387.36972427 C356.75329636 382.23813757 357.94480545 377.10532745 359.13577271 371.97238159 C360.86603608 364.51749775 362.59874689 357.06318647 364.33309937 349.60925293 C367.08660251 337.77463349 369.83470227 325.93876309 372.58129883 314.10253906 C372.81296812 313.10418187 373.04463741 312.10582468 373.28332698 311.07721424 C374.46705527 305.97590588 375.65067934 300.87457335 376.83423042 295.77322388 C377.79830479 291.61793061 378.76256102 287.46267962 379.72697258 283.3074646 C390.15790936 238.3646014 400.5261193 193.40736857 410.87626266 148.44583893 C412.17004808 142.82563399 413.46415965 137.20550419 414.7583313 131.58538818 C417.01754982 121.77427947 419.27630699 111.96306462 421.53465223 102.15175486 C421.90573516 100.53960623 422.27682864 98.92746004 422.64793444 97.31531668 C430.11420234 64.88044869 437.55481759 32.43972336 445 0 C527.17 0 609.34 0 694 0 C693.31749858 4.77750997 692.66317395 8.54368571 691.24438477 13.0246582 C690.88138779 14.18068542 690.51839081 15.33671265 690.14439392 16.527771 C689.74740799 17.77286438 689.35042206 19.01795776 688.94140625 20.30078125 C688.52130751 21.63226594 688.10172911 22.96391489 687.68263245 24.29571533 C686.78522466 27.14417257 685.88455023 29.99156735 684.98126221 32.83816528 C683.54088173 37.37786433 682.10825596 41.91998614 680.67724609 46.46264648 C680.1900669 48.0089885 679.70288427 49.55532944 679.21569824 51.10166931 C678.97366165 51.8699449 678.73162506 52.63822048 678.48225403 53.42977715 C677.74296876 55.77554064 677.00298521 58.12108284 676.26281738 60.46656799 C671.83991707 74.48507686 667.47318383 88.52063012 663.125 102.5625 C662.39753628 104.90993546 661.66999635 107.2573473 660.94238281 109.60473633 C659.81918287 113.22834664 658.69601192 116.85196587 657.5730896 120.47566223 C652.9055355 135.53606454 648.22425522 150.59220107 643.54352951 165.64851379 C642.07565011 170.37020848 640.60786394 175.09193215 639.14005947 179.81365013 C638.8964169 180.59741335 638.65277433 181.38117657 638.40174866 182.18869019 C638.1577791 182.97350643 637.91380955 183.75832268 637.66244698 184.56692123 C636.92039786 186.95397046 636.17833097 189.34101417 635.43626404 191.72805786 C632.28250266 201.87311147 629.12985396 212.01851028 625.97795486 222.16414261 C615.64171909 255.43501721 605.29118097 288.70137631 594.91999054 321.96137238 C587.52453372 345.67862486 580.14380272 369.40035264 572.78466797 393.12890625 C572.05697202 395.47526224 571.32927014 397.82161639 570.6015625 400.16796875 C570.05452164 401.93181412 570.05452164 401.93181412 569.49642944 403.73129272 C562.4017708 426.60341597 555.28840437 449.46973562 548.17944717 472.3374176 C544.77790392 483.27933449 541.37743169 494.22158355 537.97795486 505.16414261 C527.64171909 538.43501721 517.29118097 571.70137631 506.91999054 604.96137238 C499.53687733 628.63903888 492.16696983 652.32071361 484.82202148 676.01025391 C480.81206778 688.94273338 476.79641639 701.87341301 472.77321053 714.80177498 C471.98903654 717.32179156 471.20499674 719.84184985 470.42100525 722.36192322 C470.16231565 723.19345067 469.90362604 724.02497812 469.63709736 724.88170338 C469.11498266 726.55998516 468.59287204 728.23826822 468.0707655 729.91655254 C466.55317199 734.79446682 465.03470428 739.67210785 463.51558208 744.54954624 C462.56289277 747.60910401 461.6110616 750.66892831 460.65942955 753.72881508 C460.22205138 755.13454663 459.78433022 756.54017154 459.34620094 757.94566917 C455.81523086 769.27373366 452.40992738 780.63357541 449 792 C381.35 792 313.7 792 244 792 C234.75854646 763.12045769 234.75854646 763.12045769 230.671875 750 C230.2003747 748.48846332 229.72882033 746.97694351 229.25721741 745.46543884 C228.01129876 741.47102341 226.7667587 737.47617993 225.52270889 733.4811821 C224.73710009 730.95857816 223.95114783 728.43608144 223.16513062 725.91360474 C214.14217207 696.95412877 205.19950373 667.97048373 196.29500008 638.9744072 C191.7000327 624.01237544 187.08286788 609.05722153 182.46230698 594.10307693 C181.37688494 590.59014752 180.29160095 587.07717545 179.20629883 583.56420898 C178.76608825 582.13931771 178.32587727 580.71442655 177.88566589 579.28953552 C177.55616471 578.22299146 177.55616471 578.22299146 177.22000694 577.13490105 C176.77283268 575.6874865 176.32564966 574.24007466 175.87845802 572.79266548 C170.3483436 554.8934937 164.82408662 536.99251469 159.29977036 519.09155273 C151.3691934 493.39354049 143.43653554 467.69617263 135.5 442 C127.56272849 416.3014445 119.62956146 390.60162393 111.69799805 364.90130615 C104.51304127 341.6202297 97.32639182 318.33967765 90.13630676 295.06018448 C82.33811505 269.81180671 74.54292051 244.56250524 66.75 219.3125 C66.48935257 218.46797398 66.22870514 217.62344795 65.9601593 216.75333023 C61.7059734 202.96929059 57.45194635 189.18520192 53.19793701 175.40110779 C49.4774907 163.34590183 45.75699494 151.29071114 42.03640366 139.23554993 C41.25299254 136.69719621 40.46958976 134.15883992 39.68618774 131.6204834 C34.1400474 113.65014072 28.59292025 95.68010355 23.04296875 77.7109375 C22.803363 76.9351491 22.56375725 76.15936069 22.31689072 75.36006355 C19.23188157 65.37152709 19.23188157 65.37152709 16.1463623 55.38314819 C15.93877604 54.71120328 15.73118977 54.03925837 15.517313 53.34695148 C15.10643552 52.01699797 14.69553567 50.68705137 14.28461266 49.35711193 C13.3055585 46.18813193 12.32730133 43.01891082 11.35012817 39.84934998 C9.45639497 33.70724923 7.55444034 27.5679153 5.63720703 21.43310547 C5.26209488 20.22774643 4.88698273 19.02238739 4.50050354 17.78050232 C3.79162505 15.50295847 3.07951085 13.22641832 2.3636322 10.95106506 C2.05164383 9.94619553 1.73965546 8.94132599 1.41821289 7.90600586 C1.00557945 6.58746864 1.00557945 6.58746864 0.58460999 5.24229431 C0 3 0 3 0 0 Z " fill="#FEFEFE" transform="translate(3614,420)"/>
<path d="M0 0 C82.83 0 165.66 0 251 0 C251 399.96 251 799.92 251 1212 C168.17 1212 85.34 1212 0 1212 C0 812.04 0 412.08 0 0 Z " fill="#FEFEFE" transform="translate(3283,0)"/>
<path d="M0 0 C82.83 0 165.66 0 251 0 C251 261.36 251 522.72 251 792 C168.17 792 85.34 792 0 792 C0 530.64 0 269.28 0 0 Z " fill="#FEFEFE" transform="translate(4407,420)"/>
<path d="M0 0 C95.72958359 -2.02905096 190.34416018 29.78256283 301.1953125 115.37890625 C303.38136086 117.42185674 305.58928543 119.38484802 307.875 121.3125 C316.61053811 128.87460762 324.96450257 137.30691041 332.4140625 146.13671875 C334.30191407 148.35471185 336.27702792 150.48242155 338.25 152.625 C343.3104982 158.24206738 347.96253427 164.13584011 352.56298828 170.13037109 C353.51040486 171.3630106 354.46182084 172.59258789 355.41748047 173.81884766 C384.27764251 210.86249539 406.16974065 252.9078511 422 297 C422.30647461 297.8348291 422.61294922 298.6696582 422.92871094 299.52978516 C427.37293272 311.68574741 430.67575599 324.08118599 433.8125 336.625 C434.10519775 337.7935553 434.10519775 337.7935553 434.40380859 338.98571777 C434.96860845 341.25221032 435.52686547 343.52019247 436.08203125 345.7890625 C436.24633133 346.45308075 436.41063141 347.117099 436.57991028 347.80123901 C437.96095226 353.51825811 438.94206471 359.1813559 440 365 C424.655 366.98 424.655 366.98 409 369 C407.73632031 365.20896093 406.63984651 361.74413564 405.7734375 357.89453125 C389.86402926 288.66617349 359.1195384 225.35120347 312 172 C311.19691406 171.08476562 310.39382813 170.16953125 309.56640625 169.2265625 C304.57777469 163.60678691 299.35616304 158.26819686 294 153 C291.47892862 150.49101043 288.9722412 147.97146291 286.4921875 145.421875 C281.19716186 140.01620703 275.80173236 135.02786788 269.87109375 130.30859375 C267.30213922 128.2429446 264.80398022 126.12142043 262.3125 123.96459961 C255.19501546 117.82341666 247.7537287 112.30828952 240 107 C239.11489746 106.39140137 239.11489746 106.39140137 238.21191406 105.77050781 C216.56871824 90.94591795 193.9109665 77.80949133 170 67 C169.827034 67.60730957 169.65406799 68.21461914 169.4758606 68.84033203 C167.68574678 74.98249925 165.59161442 80.92670775 163.2421875 86.875 C162.8936673 87.76614502 162.54514709 88.65729004 162.18606567 89.57543945 C161.08606054 92.38508667 159.98051055 95.19251515 158.875 98 C158.12596077 99.91262678 157.37725986 101.8253861 156.62890625 103.73828125 C155.91697109 105.55480684 155.20474221 107.37121735 154.4921875 109.1875 C154.15677948 110.04263184 153.82137146 110.89776367 153.47579956 111.77880859 C153.16522614 112.56723145 152.85465271 113.3556543 152.53466797 114.16796875 C152.26169891 114.86172607 151.98872986 115.5554834 151.70748901 116.27026367 C151 118 151 118 150 120 C150.87309814 120.27239502 151.74619629 120.54479004 152.64575195 120.82543945 C158.096753 122.73422219 163.07858137 125.51398329 168.1875 128.1875 C169.26064453 128.73986328 170.33378906 129.29222656 171.43945312 129.86132812 C187.0610679 137.99817647 187.0610679 137.99817647 192 142 C192 146.21842659 189.60571396 148.1217986 186.9375 151.125 C185.92827274 152.28653268 184.92046409 153.44929943 183.9140625 154.61328125 C183.4180957 155.1851416 182.92212891 155.75700195 182.41113281 156.34619141 C179.47237044 159.79033956 176.73216304 163.39130684 174 167 C170.66448601 166.33491407 168.08900766 165.07551901 165.1328125 163.41015625 C164.17640869 162.8780957 163.22000488 162.34603516 162.23461914 161.79785156 C160.69535767 160.93885254 160.69535767 160.93885254 159.125 160.0625 C110.72047869 133.53089242 57.71744917 119.4839444 2.5 119.6875 C1.44485199 119.68965515 0.38970398 119.6918103 -0.69741821 119.69403076 C-66.67136078 119.90986224 -132.48557889 139.85308702 -186 179 C-186.55220215 179.40202637 -187.1044043 179.80405273 -187.67333984 180.21826172 C-191.15419615 182.76305417 -194.58731985 185.36470687 -198 188 C-199.25683594 188.96486328 -199.25683594 188.96486328 -200.5390625 189.94921875 C-206.34800568 194.4949473 -211.77615896 199.37890931 -217.17578125 204.39453125 C-219.52119629 206.55828206 -221.89440716 208.66866283 -224.3125 210.75 C-230.75886227 216.35726966 -236.45253187 222.51523863 -242 229 C-242.79019531 229.90105469 -243.58039063 230.80210937 -244.39453125 231.73046875 C-295.56738484 290.53091993 -323.20144832 366.39211308 -323.25 444.125 C-323.25067474 445.09909821 -323.25134949 446.07319641 -323.25204468 447.07681274 C-323.22512779 471.61771951 -320.46836498 495.05341172 -315 519 C-314.78504883 519.95293945 -314.57009766 520.90587891 -314.34863281 521.88769531 C-305.72601674 559.35547549 -289.44424396 596.69961336 -267 628 C-266.58540527 628.58152832 -266.17081055 629.16305664 -265.74365234 629.76220703 C-259.78834529 638.09192222 -253.60151254 646.16825551 -247 654 C-246.12342522 655.0635774 -245.24713649 656.12739059 -244.37109375 657.19140625 C-233.90133695 669.78414666 -222.4910693 681.8791861 -209.5703125 691.984375 C-206.82436275 694.13773377 -204.20351529 696.40695755 -201.5625 698.6875 C-136.06052882 753.0902925 -49.72426472 775.41401663 34.12744141 768.359375 C52.76391649 766.62990259 70.93286458 762.7971572 89 758 C89.85722656 757.77618652 90.71445312 757.55237305 91.59765625 757.32177734 C112.55765542 751.76206283 132.91661023 743.26714094 152 733 C152.77891602 732.58782227 153.55783203 732.17564453 154.36035156 731.75097656 C191.81791832 711.89832116 228.27375623 683.96050263 254 650 C255.02083209 648.69429248 256.04308814 647.38969757 257.06640625 646.0859375 C268.25612509 631.74854698 278.03145378 616.81485118 287 601 C287.35304199 600.38189453 287.70608398 599.76378906 288.06982422 599.12695312 C328.85977014 527.19293647 336.96949442 438.02615314 315.65234375 358.79296875 C306.33561429 325.56873559 292.27897394 293.65928456 273 265 C272.27127686 263.91211182 272.27127686 263.91211182 271.52783203 262.80224609 C264.44800446 252.31142242 256.69248827 242.48259845 248.53173828 232.81494141 C246.34198598 230.22032575 244.17151963 227.60988248 242 225 C243.53997308 219.83363871 246.80010439 216.43731361 250.3125 212.5 C251.16618164 211.52353516 251.16618164 211.52353516 252.03710938 210.52734375 C255.24019874 206.88663368 258.52919767 203.38614861 262 200 C266.92678941 204.64163761 271.27607028 209.61553969 275.5078125 214.89453125 C277.21196922 217.01804941 278.92881395 219.1155915 280.6796875 221.19921875 C306.94244381 252.76881626 326.68991449 290.27658037 340 329 C340.28423828 329.81839355 340.56847656 330.63678711 340.86132812 331.47998047 C350.1009932 358.3807644 355.68153063 386.67297913 358 415 C358.08677002 416.0219043 358.08677002 416.0219043 358.17529297 417.06445312 C363.64618111 484.01383803 349.32257433 551.70134006 318 611 C317.59700684 611.76876465 317.19401367 612.5375293 316.77880859 613.32958984 C303.00320894 639.4664459 285.79117741 663.48247652 265.6640625 685.11328125 C263.35026117 687.6204648 261.11051799 690.17354394 258.875 692.75 C248.96133393 703.78697715 237.71370756 713.91717863 226 723 C225.38189453 723.48533203 224.76378906 723.97066406 224.12695312 724.47070312 C209.74668215 735.75284136 194.83976187 745.88317778 179 755 C178.21302734 755.45632813 177.42605469 755.91265625 176.61523438 756.3828125 C128.98175752 783.81148124 74.56489419 798.6977696 19.8125 801.625 C18.69234497 801.68530396 18.69234497 801.68530396 17.54956055 801.74682617 C-37.241474 804.26372882 -94.27336004 794.50793128 -144 771 C-151.96519944 787.87859637 -159.81195777 804.77151783 -167 822 C-79.28890769 858.91379304 16.25577877 868.94518752 159 827 C165.75925357 824.19194518 172.39905852 821.16021259 179 818 C179.80421387 817.61908203 180.60842773 817.23816406 181.43701172 816.84570312 C200.50261707 807.76792232 218.66265055 797.04656254 236 785 C236.57089355 784.60780273 237.14178711 784.21560547 237.72998047 783.81152344 C247.56717301 777.03928224 256.81636035 769.62733182 266 762 C267.1132536 761.08460178 268.22653333 760.16923536 269.33984375 759.25390625 C272.60406329 756.55229366 275.81202773 753.79100589 279 751 C280.05525879 750.08154297 280.05525879 750.08154297 281.13183594 749.14453125 C283.39742994 747.15713384 285.63848637 745.14502932 287.875 743.125 C288.59623047 742.49416504 289.31746094 741.86333008 290.06054688 741.21337891 C291.87243577 739.55011459 293.52166036 737.96564861 295 736 C295.10351971 733.50529751 295.10351971 733.50529751 294 731 C292.6881669 718.08968344 294.37383604 707.62674097 301.6875 696.6875 C309.13262074 687.5984059 319.56262396 682.93277524 331.109375 681.65625 C344.2022117 681.24921881 354.18374809 685.50842498 363.75 694.25 C371.48412241 702.3430144 374.41334037 712.88838462 374.36572266 723.81665039 C374.07384927 735.53309064 368.76389859 745.67437978 360.375 753.75 C352.2139701 760.42156436 342.4531392 763.28959884 332 763 C327.40247641 762.44758437 322.88598362 761.67017657 318.515625 760.1171875 C315.77521822 759.71414807 315.77521822 759.71414807 313.38671875 762.0625 C312.49597656 763.031875 311.60523438 764.00125 310.6875 765 C309.70887396 766.03559861 308.72840168 767.06945566 307.74609375 768.1015625 C306.38677734 769.53628906 306.38677734 769.53628906 305 771 C303.14596735 772.73239631 301.24483802 774.37939185 299.3125 776.0234375 C297.47816646 777.59129691 295.67288617 779.18014655 293.875 780.7890625 C241.44134187 827.42906673 176.82893867 859.90325181 109 877 C108.04786621 877.24443848 107.09573242 877.48887695 106.11474609 877.74072266 C74.70690261 885.71921341 42.32931881 889.09123906 10 890 C9.23252441 890.02336426 8.46504883 890.04672852 7.67431641 890.07080078 C-35.91741182 891.22948196 -79.89570422 884.59475111 -121.68530273 872.56323242 C-124.08878472 871.88178498 -124.08878472 871.88178498 -127 872 C-133.27 893.45 -139.54 914.9 -146 937 C-142.7 937.66 -139.4 938.32 -136 939 C-133.24925625 939.64590987 -130.50667598 940.30460683 -127.765625 940.98828125 C-35.86594891 963.54439994 59.62081484 963.32907317 237.43994141 900.25048828 C238.26800293 899.82106934 239.09606445 899.39165039 239.94921875 898.94921875 C241.02175903 898.38207153 241.02175903 898.38207153 242.1159668 897.8034668 C244 897 244 897 247 897 C249.80433629 900.65514623 251.95757923 904.75881323 254.25 908.75 C254.91257812 909.86117187 255.57515625 910.97234375 256.2578125 912.1171875 C256.87914062 913.18710938 257.50046875 914.25703125 258.140625 915.359375 C258.71329102 916.34389648 259.28595703 917.32841797 259.87597656 918.34277344 C261 921 261 921 261.02685547 923.15161133 C259.44679981 925.99578665 257.31818755 926.77721569 254.4296875 928.21484375 C253.84989136 928.50680634 253.27009521 928.79876892 252.67272949 929.09957886 C250.74768338 930.0616893 248.81245672 931.0006581 246.875 931.9375 C245.8742746 932.42879898 245.8742746 932.42879898 244.85333252 932.93002319 C188.84308085 960.42253031 128.88962163 978.27864244 67 986 C65.08501709 986.24556641 65.08501709 986.24556641 63.13134766 986.49609375 C21.76159555 991.5594292 -21.66970971 991.34528082 -63 986 C-63.68012146 985.91278687 -64.36024292 985.82557373 -65.06097412 985.73571777 C-136.00806208 976.57129883 -204.86870095 954.62979708 -267 919 C-267.8770459 918.5035498 -268.7540918 918.00709961 -269.65771484 917.49560547 C-296.14277338 902.46743198 -320.75344329 884.78431158 -344.23242188 865.44726562 C-345.78512625 864.1759353 -347.35238851 862.92242841 -348.921875 861.671875 C-356.34698723 855.74057233 -363.21861837 849.28421167 -370.12011719 842.76220703 C-371.93274142 841.06304837 -373.76212562 839.38489873 -375.6015625 837.71484375 C-380.74362316 833.0447456 -385.73194898 828.39908592 -390.1953125 823.05859375 C-392.51103325 820.41706814 -394.99944509 817.96411466 -397.5 815.5 C-401.8832412 811.16313841 -406.02104788 806.70926612 -410 802 C-410.79664063 801.08089844 -411.59328125 800.16179688 -412.4140625 799.21484375 C-440.09165683 767.14486915 -463.2505768 731.40138575 -483 694 C-483.45729492 693.13745605 -483.91458984 692.27491211 -484.38574219 691.38623047 C-499.73419072 662.21975825 -511.85709629 631.02492273 -521.20092773 599.43603516 C-521.77132396 597.07817902 -521.77132396 597.07817902 -523 596 C-523.8224118 596.23803345 -524.64482361 596.47606689 -525.49215698 596.72131348 C-533.23146394 598.96081801 -540.9714993 601.19778313 -548.71236992 603.43187714 C-552.69228178 604.58061781 -556.671902 605.73034886 -560.65087891 606.88232422 C-564.48866319 607.99338302 -568.32718295 609.10186514 -572.16623306 610.20854187 C-573.63296289 610.63184855 -575.09942234 611.05609319 -576.56560898 611.48127747 C-578.61448971 612.07526789 -580.66429436 612.6659579 -582.71435547 613.25585938 C-583.88239716 613.59339233 -585.05043884 613.93092529 -586.25387573 614.27868652 C-589 615 -589 615 -591 615 C-574.61459072 664.96986544 -555.90303086 713.28676675 -528.57128906 758.40429688 C-527.10349214 760.82903536 -525.6546829 763.26401523 -524.2109375 765.703125 C-510.58252007 788.56619405 -495.11570842 810.61026402 -478 831 C-476.56101857 832.76962973 -475.12356286 834.54050101 -473.6875 836.3125 C-459.67897247 853.39902579 -444.7226741 869.3620563 -429.125 885 C-428.53709686 885.59058197 -427.94919373 886.18116394 -427.34347534 886.78964233 C-421.07279401 893.08197574 -414.79023024 899.26300235 -408 905 C-406.83153919 906.02138864 -405.66485939 907.04481846 -404.5 908.0703125 C-389.5446208 921.14884675 -374.11182013 933.37475927 -358 945 C-356.91501221 945.78721436 -356.91501221 945.78721436 -355.80810547 946.59033203 C-344.83121119 954.5398135 -333.54305268 961.90068019 -322 969 C-321.00637451 969.61270752 -321.00637451 969.61270752 -319.99267578 970.23779297 C-309.83968208 976.47713592 -299.47631512 982.32267235 -289 988 C-288.14970215 988.46277344 -287.2994043 988.92554688 -286.42333984 989.40234375 C-214.50396277 1028.35042688 -135.37119715 1049.92365062 -43 1060 C-43 1070.23 -43 1080.46 -43 1091 C-122.63155636 1088.32330903 -202.10134412 1065.40219359 -274 1032 C-275.25490234 1031.42282227 -275.25490234 1031.42282227 -276.53515625 1030.83398438 C-322.69985424 1009.56201569 -366.1555246 981.7457282 -405.31054688 949.38525391 C-407.61779084 947.49344722 -409.96516865 945.65419551 -412.3125 943.8125 C-416.86237386 940.1878946 -421.14283914 936.30166761 -425.421875 932.36328125 C-427.54670753 930.41551809 -429.69358899 928.50852926 -431.875 926.625 C-442.07989425 917.70079965 -451.78145568 908.32158905 -461.375 898.75 C-461.89682861 898.23075958 -462.41865723 897.71151917 -462.95629883 897.17654419 C-468.32445153 891.82937731 -473.61745283 886.46026455 -478.54638672 880.69873047 C-480.59473747 878.30497424 -482.73736065 876.00147661 -484.875 873.6875 C-488.91402153 869.25368689 -492.77506878 864.71945416 -496.5390625 860.05078125 C-498.33280236 857.82711326 -500.13872383 855.61801522 -501.9609375 853.41796875 C-510.37254881 843.22787293 -518.26961582 832.71380475 -526 822 C-526.52480957 821.2766748 -527.04961914 820.55334961 -527.59033203 819.80810547 C-534.93592601 809.66507805 -541.8210202 799.28664339 -548.38427734 788.62109375 C-549.48292012 786.83882889 -550.5876481 785.06030387 -551.69775391 783.28515625 C-573.0146315 749.15921954 -590.55330794 712.67282451 -604.82617188 675.08398438 C-605.83242834 672.440259 -606.85679025 669.80488768 -607.890625 667.171875 C-629.8987064 610.34183787 -645 544.03200449 -645 483 C-634.77 483 -624.54 483 -614 483 C-613.70867188 485.91457031 -613.41734375 488.82914063 -613.1171875 491.83203125 C-609.98664726 522.55349631 -605.8407724 552.86036161 -599 583 C-595.11202991 583 -592.49936063 582.42050413 -588.79443359 581.34765625 C-587.53988373 580.98728271 -586.28533386 580.62690918 -584.99276733 580.25561523 C-583.62798103 579.85794342 -582.26320466 579.46023753 -580.8984375 579.0625 C-579.49662497 578.65839805 -578.09465518 578.25484125 -576.6925354 577.85180664 C-573.00622229 576.79098021 -569.32163729 575.72428106 -565.63751221 574.65588379 C-559.73386057 572.94446345 -553.82815629 571.24017866 -547.92146683 569.53927612 C-545.85668892 568.94348779 -543.79297554 568.3441148 -541.7293396 567.74438477 C-540.48109406 567.38401123 -539.23284851 567.0236377 -537.94677734 566.65234375 C-536.84409515 566.33257568 -535.74141296 566.01280762 -534.60531616 565.68334961 C-532 565 -532 565 -530 565 C-530.16081055 564.2378418 -530.32162109 563.47568359 -530.48730469 562.69042969 C-538.78576139 523.06855437 -543.23673798 483.56028108 -543.1875 443.0625 C-543.18689575 442.13045746 -543.1862915 441.19841492 -543.18566895 440.23812866 C-543.15746304 424.08457084 -542.62617933 408.08284652 -541 392 C-540.87641113 390.76411133 -540.75282227 389.52822266 -540.62548828 388.25488281 C-538.21414227 365.0767327 -534.43648283 341.93405506 -528.85546875 319.29638672 C-528.57165344 318.13833778 -528.57165344 318.13833778 -528.28210449 316.95689392 C-527.91567678 315.4782509 -527.54086905 314.00165082 -527.15637207 312.52760315 C-525.93956126 307.71645711 -525.93956126 307.71645711 -527 303 C-528.23320828 301.23324572 -528.23320828 301.23324572 -529.75 299.5 C-537.55298242 289.22795793 -539.61428001 278.59575546 -538 266 C-536.51993208 259.61392012 -533.98172536 254.22601454 -530 249 C-529.443125 248.175 -528.88625 247.35 -528.3125 246.5 C-524.97583934 242.89279928 -521.2351909 240.4576227 -517 238 C-516.28199219 237.58105469 -515.56398438 237.16210938 -514.82421875 236.73046875 C-505.98985962 232.41246593 -494.89341142 232.51845275 -485.48828125 234.8828125 C-475.05056216 238.91890874 -467.36371924 245.18553501 -462 255 C-461.58621094 255.71414063 -461.17242187 256.42828125 -460.74609375 257.1640625 C-456.39754124 265.98238152 -456.51995869 277.11257905 -458.8828125 286.51171875 C-463.3501946 298.06478305 -470.50130251 305.87903037 -481.5859375 311.25390625 C-486.30627282 313.28804474 -489.80463955 314.1954839 -495 314 C-501.3086009 340.71878028 -506.08616086 367.70096957 -509 395 C-509.17789063 396.66651611 -509.17789063 396.66651611 -509.359375 398.36669922 C-518.02050446 484.26912166 -502.47054855 573.12639297 -398.1875 765.5 C-396.59737442 767.4328818 -395.003104 769.36222541 -393.40625 771.28955078 C-392.1705591 772.79254565 -390.95832092 774.31475814 -389.75 775.83984375 C-379.47518433 788.78066273 -367.64713771 800.43481585 -356 812.125 C-355.12827148 813.00140137 -354.25654297 813.87780273 -353.35839844 814.78076172 C-348.39853423 819.72825956 -343.32058332 824.44528998 -338 829 C-336.84327846 830.02143247 -335.68828908 831.04483033 -334.53515625 832.0703125 C-325.3545042 840.1725105 -315.83592524 847.71074068 -306 855 C-305.26346191 855.54688477 -304.52692383 856.09376953 -303.76806641 856.65722656 C-284.09163611 871.21052116 -263.43087651 884.08273514 -242.00634766 895.89257812 C-240.7043296 896.61123886 -239.40438737 897.33367826 -238.10693359 898.06054688 C-208.26682779 915.99091213 -208.26682779 915.99091213 -176 925 C-169.73 903.55 -163.46 882.1 -157 860 C-161.95 858.515 -161.95 858.515 -167 857 C-170.18705953 855.67626719 -173.31113701 854.32535178 -176.4375 852.875 C-177.30020508 852.47885498 -178.16291016 852.08270996 -179.05175781 851.67456055 C-180.83717232 850.8526385 -182.62119501 850.02768627 -184.40380859 849.19970703 C-186.8203348 848.08302377 -189.24598894 846.98977793 -191.67578125 845.90234375 C-211.10627488 837.09501544 -229.27784588 825.82493703 -247 814 C-247.59006836 813.6071582 -248.18013672 813.21431641 -248.78808594 812.80957031 C-250.19268607 811.87399019 -251.59644295 810.93714424 -253 810 C-251.24963182 805.89884665 -248.5085547 802.64292855 -245.75 799.1875 C-245.25781982 798.56601074 -244.76563965 797.94452148 -244.25854492 797.30419922 C-240.93119181 793.11964272 -237.53445066 789.01207913 -234 785 C-228.59683373 787.84452404 -223.42362735 790.97476603 -218.3125 794.3125 C-211.37196547 798.84084545 -204.23567954 802.96429424 -197 807 C-194.91689601 804.36232145 -193.31945587 801.82777456 -191.93115234 798.76977539 C-191.55421234 797.94534439 -191.17727234 797.12091339 -190.78890991 796.27149963 C-190.39192902 795.38913132 -189.99494812 794.506763 -189.5859375 793.59765625 C-189.17082916 792.68294052 -188.75572083 791.76822479 -188.32803345 790.82579041 C-187.45322675 788.89448575 -186.58091683 786.96204846 -185.7109375 785.02856445 C-184.37995434 782.07349969 -183.03819672 779.12350037 -181.6953125 776.17382812 C-180.84570022 774.29456634 -179.99672056 772.41501841 -179.1484375 770.53515625 C-178.74740814 769.65481216 -178.34637878 768.77446808 -177.93319702 767.8674469 C-177.56256134 767.03986374 -177.19192566 766.21228058 -176.81005859 765.35961914 C-176.48379486 764.63666153 -176.15753113 763.91370392 -175.82138062 763.1688385 C-174.92454242 760.80075582 -174.43267531 758.49125347 -174 756 C-174.51159668 755.70456299 -175.02319336 755.40912598 -175.55029297 755.10473633 C-188.23813447 747.73764814 -200.30737327 739.86215888 -212 731 C-212.65258789 730.50580566 -213.30517578 730.01161133 -213.97753906 729.50244141 C-221.6398535 723.66439404 -228.91225362 717.52881336 -236 711 C-236.72703125 710.36449219 -237.4540625 709.72898437 -238.203125 709.07421875 C-249.91117977 698.81971499 -261.43755742 687.82306466 -271.01953125 675.53515625 C-273.15789936 672.79787637 -275.41716569 670.19111573 -277.6875 667.5625 C-316.80043122 620.61483566 -341.40447366 561.28249753 -351.1875 501.3125 C-351.3424292 500.36455566 -351.4973584 499.41661133 -351.65698242 498.43994141 C-352.14477978 495.29753862 -352.5826664 492.15256961 -353 489 C-353.08827057 488.34053375 -353.17654114 487.6810675 -353.26748657 487.00161743 C-355.0654808 473.1869333 -355.36158818 459.48109862 -355.3125 445.5625 C-355.31034485 444.46094574 -355.3081897 443.35939148 -355.30596924 442.22445679 C-355.25294866 425.31135167 -354.77510085 408.71985895 -352 392 C-351.69400879 390.14568359 -351.69400879 390.14568359 -351.38183594 388.25390625 C-348.36659421 370.53990975 -344.35815796 353.16062788 -339 336 C-338.7417041 335.16597656 -338.4834082 334.33195312 -338.21728516 333.47265625 C-324.70218094 290.627085 -302.11462113 249.59447994 -272.52001953 215.79101562 C-271.34648221 214.40825466 -270.20184052 213.00093774 -269.06982422 211.58398438 C-263.76812199 204.95064227 -258.12131112 198.80861484 -252.09863281 192.83789062 C-250.62587477 191.37586839 -249.16414955 189.90342512 -247.703125 188.4296875 C-242.2002504 182.91921519 -236.49634996 177.7918663 -230.40722656 172.92578125 C-228.48971371 171.39177097 -226.62298069 169.83407904 -224.78515625 168.20703125 C-208.11901486 153.54943488 -189.18107305 142.04073184 -170 131 C-169.22591797 130.55285645 -168.45183594 130.10571289 -167.65429688 129.64501953 C-130.32095413 108.32280223 -86.48663058 95.38027327 -44 90 C-43.31626312 89.91279694 -42.63252625 89.82559387 -41.92807007 89.73574829 C-27.42964176 87.94108448 -13.03449589 87.63811579 1.5625 87.6875 C3.2845314 87.69073273 3.2845314 87.69073273 5.04135132 87.69403076 C21.88260344 87.74474815 38.36645749 88.13684924 55 91 C56.20172852 91.19867676 57.40345703 91.39735352 58.64160156 91.60205078 C79.55523928 95.12815666 99.89353865 100.23174515 120 107 C122.98460726 101.22862563 125.53479584 95.40803056 127.890625 89.35546875 C128.41484039 88.01806389 128.41484039 88.01806389 128.949646 86.65364075 C129.68090696 84.78457026 130.4102316 82.91474114 131.13769531 81.04418945 C132.25450362 78.17593352 133.38080908 75.31152865 134.5078125 72.44726562 C135.2193244 70.6252242 135.93028182 68.80296613 136.640625 66.98046875 C136.97805725 66.12422409 137.3154895 65.26797943 137.66314697 64.38578796 C137.97056824 63.59098526 138.2779895 62.79618256 138.59472656 61.97729492 C138.86690002 61.2797258 139.13907349 60.58215668 139.41949463 59.8634491 C140.1487121 57.84792326 140.1487121 57.84792326 140 55 C95.94213723 40.16098633 51.47781134 32.3240241 5 31 C4.16080872 26.58442544 3.3296592 22.16737466 2.5 17.75 C2.26152344 16.49574219 2.02304687 15.24148438 1.77734375 13.94921875 C1.43896484 12.14130859 1.43896484 12.14130859 1.09375 10.296875 C0.88427734 9.18666992 0.67480469 8.07646484 0.45898438 6.93261719 C0 4 0 4 0 0 Z M-512.3125 262.5 C-516.54413423 267.5646331 -516.52791536 272.63513371 -516 279 C-514.21984261 284.4451873 -510.611739 287.78226393 -506 291 C-500.2323764 292.9225412 -494.12025209 293.02086212 -488.625 290.375 C-482.46088341 284.87756606 -482.46088341 284.87756606 -479.76171875 277.390625 C-479.55495755 268.96453247 -479.55495755 268.96453247 -484 262 C-489.28942982 256.94534905 -493.30971641 255.67811231 -500.50390625 255.79296875 C-505.85290798 256.23662617 -508.85846113 258.63768231 -512.3125 262.5 Z M318.625 711.25 C315.96335767 715.75431779 314.51511529 720.15534306 315.41015625 725.40625 C317.11692646 731.00221791 319.57080081 734.99948302 324.125 738.75 C329.30845748 741.00367716 334.19206131 741.80982579 339.6953125 740.22265625 C344.81852676 737.95161948 348.5706065 735.31724483 351.21875 730.3046875 C352.99593376 725.06199541 353.11800622 719.83765138 351.078125 714.66015625 C347.97072835 709.24239002 343.97397191 705.99132397 338 704 C329.63591892 702.84519591 324.60065682 705.58885144 318.625 711.25 Z " fill="#DCB136" transform="translate(645,316)"/>
<path d="M0 0 C0 10.23 0 20.46 0 31 C-8.71524341 32.16203245 -17.38675462 33.27593393 -26.1184082 34.2409668 C-103.84327894 43.04064421 -179.06703066 67.11019398 -272 118 C-273.60498749 118.95523617 -275.21043298 119.90970335 -276.81640625 120.86328125 C-289.25298383 128.29914638 -301.44004286 136.25366247 -313 145 C-311.70891619 147.76655418 -310.2935196 150.04962067 -308.34765625 152.3984375 C-307.82429688 153.03523437 -307.3009375 153.67203125 -306.76171875 154.328125 C-306.20097656 155.00359375 -305.64023437 155.6790625 -305.0625 156.375 C-303.87535508 157.81953475 -302.68917258 159.26486093 -301.50390625 160.7109375 C-300.91109863 161.4337793 -300.31829102 162.15662109 -299.70751953 162.90136719 C-297.26500323 165.90335033 -294.87884295 168.94748286 -292.5 172 C-284.84143695 181.80647212 -276.98285669 191.45592042 -269 201 C-268.30777344 200.52804199 -267.61554688 200.05608398 -266.90234375 199.56982422 C-234.55586715 177.58466135 -200.86637146 158.32533917 -164.76831055 143.16333008 C-162.91619496 142.38501358 -161.06867077 141.59568361 -159.22583008 140.7956543 C-150.65755333 137.11958483 -141.90688778 134.11613234 -133.0625 131.1875 C-132.27587982 130.92643463 -131.48925964 130.66536926 -130.67880249 130.39639282 C-88.82401274 116.54815312 -44.30210816 105.20823931 0 104 C0 114.23 0 124.46 0 135 C-2.63742187 135.35191406 -5.27484375 135.70382813 -7.9921875 136.06640625 C-46.57714635 141.29355597 -83.94412635 148.81174276 -121 161 C-114.15425916 182.17350443 -106.57394023 203.07906561 -99 224 C-90.80226854 222.00202595 -82.67606075 219.81411879 -74.5625 217.5 C-51.54940071 211 -51.54940071 211 -46 211 C-45.34402139 214.1021087 -44.70219401 217.20699586 -44.0625 220.3125 C-43.78889648 221.60510742 -43.78889648 221.60510742 -43.50976562 222.92382812 C-42.21337681 229.26434797 -41.46478485 235.54655159 -41 242 C-41.67538818 242.1544458 -42.35077637 242.3088916 -43.04663086 242.46801758 C-123.18060703 261.04504828 -193.6071515 300.74757988 -251.875 358.75 C-252.57657227 359.44689941 -253.27814453 360.14379883 -254.00097656 360.86181641 C-258.53705737 365.41191744 -262.82179719 370.12073928 -267 375 C-267.88918048 376.0209574 -268.77849232 377.04180043 -269.66796875 378.0625 C-321.19980312 438.14302628 -353.9876394 512.78236127 -365 591 C-365.16371094 592.14500977 -365.32742188 593.29001953 -365.49609375 594.46972656 C-370.28260311 629.66639355 -370.06592183 666.85516733 -365 702 C-364.79117188 703.52125488 -364.79117188 703.52125488 -364.578125 705.07324219 C-361.3816949 727.89960067 -356.02601002 750.5212603 -349.06640625 772.484375 C-348 776 -348 776 -348 778 C-347.01902344 777.95359375 -346.03804687 777.9071875 -345.02734375 777.859375 C-325.84074044 777.23132777 -309.28230581 783.14091654 -294.984375 796.0703125 C-284.329168 806.20690323 -275.80463517 821.57326322 -274.83886719 836.48852539 C-274.47269111 859.24040759 -277.83187463 876.73334347 -294 894 C-304.82009302 905.14863836 -320.41168997 912.95067004 -336.09765625 913.203125 C-357.64853296 913.49056644 -375.0038798 909.42835667 -391 894 C-405.83094292 878.39465658 -410.45367231 861.36117504 -410.21484375 840.4765625 C-409.74177464 823.15811956 -401.15346352 807.10445762 -389 795 C-380.90874525 788 -380.90874525 788 -378 788 C-378.26627197 787.11779785 -378.53254395 786.2355957 -378.80688477 785.32666016 C-388.52006465 752.89922897 -395.61548804 720.71291206 -399 687 C-399.103125 686.04472412 -399.20625 685.08944824 -399.3125 684.10522461 C-400.43328568 672.17786344 -400.24398398 660.15591924 -400.25 648.1875 C-400.25067474 646.98303223 -400.25134949 645.77856445 -400.25204468 644.53759766 C-400.2351295 625.50407147 -399.65283595 606.86748691 -397 588 C-396.82839355 586.76604492 -396.65678711 585.53208984 -396.47998047 584.26074219 C-390.68000843 543.92527981 -379.99613219 504.11140474 -363 467 C-362.53625977 465.98583008 -362.07251953 464.97166016 -361.59472656 463.92675781 C-344.19737645 426.21506702 -322.57444118 391.89398434 -296 360 C-295.16525146 358.99356445 -294.33050293 357.98712891 -293.47045898 356.95019531 C-286.20303818 348.27965496 -278.47737429 340.16592133 -270.4543457 332.19360352 C-268.42877518 330.17882165 -266.41421616 328.15346725 -264.40039062 326.12695312 C-257.23564373 318.95492131 -249.9728828 312.27216067 -242 306 C-240.90950319 305.07741156 -239.82491106 304.14773254 -238.75 303.20703125 C-215.45833477 282.92607843 -189.0406231 266.33165842 -161.75 252 C-160.89494873 251.55003662 -160.03989746 251.10007324 -159.15893555 250.63647461 C-149.23636255 245.49267798 -139.10393585 240.77412651 -129 236 C-129.2461203 235.30144394 -129.4922406 234.60288788 -129.74581909 233.88316345 C-132.07240408 227.27851588 -134.39700091 220.6731727 -136.71940422 214.06705379 C-137.9132515 210.67135408 -139.10784792 207.27592192 -140.30419922 203.88110352 C-141.46013747 200.60087282 -142.61405186 197.31993651 -143.76660538 194.03851509 C-144.41771561 192.18639841 -145.07088396 190.33500568 -145.72409058 188.48362732 C-147.64002273 183.02369067 -149.5083232 177.59200371 -151 172 C-219.12523482 203.28681677 -286.42769956 244.07420227 -335.4140625 302.13671875 C-337.30191407 304.35471185 -339.27702792 306.48242155 -341.25 308.625 C-346.33108696 314.25725571 -350.95942043 320.20249936 -355.59716797 326.19873047 C-356.95881777 327.94712104 -358.33690058 329.68083304 -359.72265625 331.41015625 C-368.36117661 342.21568541 -376.37255142 353.45965226 -384 365 C-390.22582979 364.07344962 -394.97537193 360.79381308 -400.3125 357.625 C-401.33923828 357.03460938 -402.36597656 356.44421875 -403.42382812 355.8359375 C-404.39384766 355.26359375 -405.36386719 354.69125 -406.36328125 354.1015625 C-407.25313721 353.57900879 -408.14299316 353.05645508 -409.05981445 352.51806641 C-409.70007568 352.01710449 -410.34033691 351.51614258 -411 351 C-411 347.7603493 -410.65682487 347.10131179 -408.9375 344.5078125 C-408.47835205 343.81308838 -408.0192041 343.11836426 -407.54614258 342.40258789 C-407.03591553 341.65098389 -406.52568848 340.89937988 -406 340.125 C-405.47108154 339.33923584 -404.94216309 338.55347168 -404.3972168 337.74389648 C-395.0122044 323.98146063 -384.75974856 310.71606649 -374 298 C-373.55769043 297.47422363 -373.11538086 296.94844727 -372.65966797 296.40673828 C-371.17346472 294.64228001 -369.68155605 292.88281254 -368.1875 291.125 C-367.53152832 290.34974976 -367.53152832 290.34974976 -366.86230469 289.55883789 C-357.84999422 279.03545276 -348.23729149 269.06958151 -338.42578125 259.29541016 C-336.73318653 257.60824042 -335.04609403 255.91569804 -333.359375 254.22265625 C-327.74527306 248.60465552 -322.06867071 243.12987984 -316 238 C-314.70298137 236.87275505 -313.40742039 235.74383084 -312.11328125 234.61328125 C-310.84652341 233.51282598 -309.57959704 232.41256468 -308.3125 231.3125 C-307.67505859 230.75755859 -307.03761719 230.20261719 -306.38085938 229.63085938 C-302.97737121 226.67695479 -299.54446393 223.78542003 -296 221 C-297.29108381 218.23344582 -298.7064804 215.95037933 -300.65234375 213.6015625 C-301.17570312 212.96476563 -301.6990625 212.32796875 -302.23828125 211.671875 C-302.79902344 210.99640625 -303.35976563 210.3209375 -303.9375 209.625 C-305.12464492 208.18046525 -306.31082742 206.73513907 -307.49609375 205.2890625 C-308.08890137 204.5662207 -308.68170898 203.84337891 -309.29248047 203.09863281 C-311.73499677 200.09664967 -314.12115705 197.05251714 -316.5 194 C-324.15856305 184.19352788 -332.01714331 174.54407958 -340 165 C-340.93199219 165.81082031 -341.86398437 166.62164062 -342.82421875 167.45703125 C-344.11182482 168.57569851 -345.3995978 169.69417367 -346.6875 170.8125 C-347.36361328 171.3998291 -348.03972656 171.9871582 -348.73632812 172.59228516 C-352.58108359 175.92542559 -356.44806537 179.22805297 -360.35009766 182.49389648 C-364.85120948 186.26169607 -369.23156625 190.0588605 -373.29907227 194.30004883 C-374.95085163 195.95087985 -376.66219552 197.45007349 -378.4453125 198.95703125 C-383.6873772 203.51508728 -388.5737062 208.42365658 -393.47290039 213.3425293 C-395.05959946 214.93458966 -396.65157742 216.5212299 -398.24414062 218.10742188 C-403.70612001 223.56545955 -409.01353687 229.09914676 -414 235 C-414.93784167 236.08286378 -415.87661168 237.16492441 -416.81640625 238.24609375 C-439.57807386 264.64321991 -460.92098259 292.15078897 -479 322 C-479.71847454 323.1720439 -480.43722035 324.34392157 -481.15625 325.515625 C-531.89415971 408.65244092 -559.53390274 499.60173573 -570 596 C-580.23 596 -590.46 596 -601 596 C-601 584.72990354 -601 584.72990354 -600.484375 580.03125 C-600.36989014 578.9796167 -600.25540527 577.9279834 -600.13745117 576.84448242 C-599.94566284 575.18896362 -599.94566284 575.18896362 -599.75 573.5 C-599.61505127 572.32219971 -599.48010254 571.14439941 -599.34106445 569.9309082 C-594.21017094 526.33430194 -584.68903161 483.68339754 -571 442 C-570.46487793 440.35789551 -570.46487793 440.35789551 -569.91894531 438.68261719 C-564.143996 421.08302327 -557.31486716 404.00452626 -550 387 C-549.5978125 386.06430176 -549.195625 385.12860352 -548.78125 384.16455078 C-539.21279941 362.06657961 -528.10174955 340.80671519 -516 320 C-515.5265918 319.1764502 -515.05318359 318.35290039 -514.56542969 317.50439453 C-498.59190188 289.76178757 -479.84074071 263.37652848 -459.43261719 238.73681641 C-457.37117868 236.23765595 -455.34583293 233.70954629 -453.3125 231.1875 C-449.54395302 226.58226644 -445.59211696 222.17126466 -441.5546875 217.80078125 C-439.55736477 215.61105587 -437.59989938 213.4007586 -435.65625 211.1640625 C-426.51969073 200.69257638 -416.8061284 190.71702836 -407 180.875 C-406.3188916 180.18929932 -405.6377832 179.50359863 -404.93603516 178.79711914 C-401.02750636 174.90052697 -397.00888832 171.19089557 -392.83056641 167.58544922 C-390.40241884 165.48243637 -388.04690107 163.30460223 -385.6875 161.125 C-380.80920457 156.68047913 -375.78186086 152.47857769 -370.64599609 148.33691406 C-368.04238768 146.22220631 -365.463059 144.07830034 -362.87988281 141.9387207 C-340.07243567 123.07051081 -340.07243567 123.07051081 -329.9453125 116.85546875 C-326.38609437 114.61325574 -322.95017468 112.21769008 -319.5 109.8125 C-294.5293041 92.52669469 -268.13238619 77.60101497 -241 64 C-240.0114502 63.50371094 -239.02290039 63.00742188 -238.00439453 62.49609375 C-222.66356466 54.84782129 -206.97352539 48.20861939 -191 42 C-189.83645996 41.54625 -188.67291992 41.0925 -187.47412109 40.625 C-129.41144685 18.17484338 -62.71325877 0 0 0 Z M-367.7578125 826.140625 C-373.49483742 834.28886329 -374.98419267 842.13283758 -374 852 C-372.21432632 859.75298827 -367.9860725 865.82974658 -362 871 C-352.91375667 876.64020142 -343.85562469 878.7444598 -333.23828125 876.38671875 C-324.67336891 873.33454434 -318.12901625 867.79172961 -314 859.6875 C-310.62154545 852.21501546 -309.54076093 844.49507742 -311.68359375 836.42578125 C-312.63984761 834.15219842 -313.71544995 832.10490133 -315 830 C-315.63615234 828.95199219 -315.63615234 828.95199219 -316.28515625 827.8828125 C-320.62824022 821.47101722 -326.24667461 817.52913257 -333.375 814.625 C-346.59707463 812.34533196 -358.98307106 815.45493987 -367.7578125 826.140625 Z " fill="#DCB136" transform="translate(602,114)"/>
<path d="M0 0 C-1.80989808 13.53803767 -19.12200721 27.99984278 -27.98828125 37.7734375 C-29.84734669 39.83104391 -31.67928358 41.90846763 -33.5 44 C-37.61082427 48.71702877 -41.8074226 53.35569709 -46 58 C-47.50028679 59.66640851 -49.00028872 61.33307353 -50.5 63 C-52.7717129 65.52500493 -55.04435414 68.04913304 -57.3203125 70.5703125 C-61.31243726 74.9954813 -65.27325892 79.44337135 -69.1875 83.9375 C-71.27211164 86.30964429 -73.38428644 88.65556065 -75.5 91 C-80.32121275 96.34789986 -85.07894027 101.74302215 -89.75 107.22265625 C-94.49079323 112.78122479 -99.24086217 118.30937974 -104.1875 123.6875 C-107.35830742 127.14015696 -110.38035031 130.65530966 -113.3125 134.3125 C-117.38813044 139.36916714 -121.7536296 144.08348303 -126.20239258 148.80786133 C-129.44533642 152.27044112 -132.53422177 155.79277721 -135.5 159.5 C-140.05876051 165.19424514 -145.01286386 170.46955246 -150 175.78515625 C-152.80517254 178.77774333 -155.51614046 181.8396056 -158.1953125 184.9453125 C-160.5878181 187.66924745 -163.0440768 190.33341628 -165.5 193 C-169.122876 196.93488819 -172.69511595 200.90473326 -176.1953125 204.94921875 C-178.40483808 207.46004328 -180.67266951 209.91397599 -182.9375 212.375 C-186.03204586 215.7571948 -188.96112014 219.17560957 -191.75 222.8125 C-211.73477986 247.99332262 -238.09061133 261.85932778 -269 269 C-269.7734375 269.18820312 -270.546875 269.37640625 -271.34375 269.5703125 C-303.83570785 274.82636451 -336.58367951 266.71668364 -364 249 C-367.82903526 246.1698435 -371.42475076 243.1418857 -375 240 C-375.83015625 239.31421875 -376.6603125 238.6284375 -377.515625 237.921875 C-402.2300508 216.93792856 -416.13026709 184.81392075 -419 153 C-421.5041308 117.03487504 -409.06435636 84.21839851 -386 57 C-365.22928857 33.42608686 -334.19473479 18.62137656 -303 16 C-279.82903637 14.83756944 -257.97759784 17.58478233 -237.04296875 27.9453125 C-229.16371701 31.62134779 -221.1587381 33.34450805 -212.6875 35.0625 C-211.0650457 35.40214597 -209.4426508 35.74207579 -207.8203125 36.08227539 C-165.43731737 44.85244104 -122.72440902 50.57295587 -81 36 C-80.24025879 35.73654785 -79.48051758 35.4730957 -78.69775391 35.20166016 C-56.80207034 27.42311622 -35.99486461 15.89952909 -15.56811523 4.91845703 C-5.77693459 -0.33011055 -5.77693459 -0.33011055 0 0 Z " fill="#FEFEFE" transform="translate(5755,1251)"/>
<path d="M0 0 C3.23180135 13.89154996 5.70824451 27.8209934 7.6875 41.9375 C7.78968842 42.64926392 7.89187683 43.36102783 7.99716187 44.09436035 C11.40474841 68.00008105 12.38035662 91.80642764 12.3125 115.9375 C12.31027621 117.33886711 12.30809976 118.7402343 12.30596924 120.14160156 C12.26227831 140.89858054 11.81819365 161.40263051 9 182 C8.8981842 182.75980164 8.79636841 183.51960327 8.69146729 184.3024292 C5.80939459 205.74597886 2.31070976 227.00941126 -3 248 C-3.2479834 248.98371582 -3.4959668 249.96743164 -3.75146484 250.98095703 C-23.93995132 329.59546795 -61.33441034 404.98774199 -114.79296875 466.30078125 C-116.81290802 468.77118486 -118.44522261 471.21963261 -120 474 C-115.52750285 478.5795516 -110.97526475 482.98248681 -106.125 487.16015625 C-101.15127321 491.46645279 -96.30439475 495.91906171 -91.421875 500.328125 C-86.319038 504.93007003 -81.18273098 509.48833976 -76 514 C-74.49968066 515.31213495 -72.99967399 516.62462751 -71.5 517.9375 C-70.8296875 518.52402344 -70.159375 519.11054687 -69.46875 519.71484375 C-68.74171875 520.35099609 -68.74171875 520.35099609 -68 521 C-47.81871062 501.25116682 -31.29056932 476.62877133 -16 453 C-15.30656494 451.93193115 -15.30656494 451.93193115 -14.59912109 450.84228516 C35.78352643 372.97207634 67.24619081 285.13266638 82.45605469 162.73852539 C82.51696289 161.85028076 82.57787109 160.96203613 82.640625 160.046875 C82.68735352 159.28213867 82.73408203 158.51740234 82.78222656 157.72949219 C83 156 83 156 84 155 C86.29151417 154.91209025 88.58572524 154.89305962 90.87890625 154.90234375 C91.90889992 154.90446617 91.90889992 154.90446617 92.95970154 154.90663147 C95.16067801 154.91224521 97.36155409 154.92479993 99.5625 154.9375 C101.05143083 154.94251324 102.54036324 154.94707645 104.02929688 154.95117188 C107.68623075 154.96221907 111.34310558 154.97949287 115 155 C111.77218666 198.0846145 105.85259212 240.13653537 95 282 C94.596604 283.56161865 94.596604 283.56161865 94.18505859 285.15478516 C84.95534317 320.44221703 72.50798981 354.99245486 57 388 C56.56107422 388.94343262 56.12214844 389.88686523 55.66992188 390.85888672 C33.74374155 437.89039105 6.48813636 481.54645279 -26 522 C-26.77988281 522.97453125 -27.55976562 523.9490625 -28.36328125 524.953125 C-32.67743016 530.28806562 -37.14964897 535.42791774 -41.77734375 540.4921875 C-43.97291438 542.96943942 -46.01636406 545.52365071 -48.0625 548.125 C-52.69876742 553.87331745 -57.87116462 559.0116313 -63.15258789 564.16650391 C-67.10675529 568.03828266 -70.80817795 572.02794622 -74.41894531 576.22094727 C-76.40542253 578.45619426 -78.54866646 580.42355235 -80.8125 582.375 C-84.32902809 585.46657001 -87.66845491 588.64793154 -90.9375 592 C-95.11184785 596.2264458 -99.52072746 599.9577229 -104.16015625 603.66015625 C-107.15138374 606.12473021 -109.98681571 608.72574641 -112.8125 611.375 C-119.22704052 617.33934286 -126.0294868 622.70373611 -133 628 C-134.13816162 628.8669751 -134.13816162 628.8669751 -135.29931641 629.75146484 C-184.73849991 667.3331625 -238.14938607 698.186459 -296 721 C-297.11310547 721.43940918 -298.22621094 721.87881836 -299.37304688 722.33154297 C-357.66132653 745.11711824 -424.95663952 763 -488 763 C-488 752.77 -488 742.54 -488 732 C-485.31617188 731.69707031 -482.63234375 731.39414063 -479.8671875 731.08203125 C-390.19830006 720.8497622 -303.94147857 697.04478685 -136.375 588.4375 C-135.82142822 587.96699219 -135.26785645 587.49648437 -134.69750977 587.01171875 C-127.8666224 581.19632801 -121.16519537 575.26722287 -114.56665039 569.18969727 C-111.36339265 566.24056229 -108.1302715 563.32936855 -104.875 560.4375 C-99.72060451 555.81862612 -94.846168 550.93896696 -90 546 C-91.57225434 541.9557072 -94.45172712 539.49426986 -97.625 536.6875 C-98.43795532 535.95575562 -98.43795532 535.95575562 -99.26733398 535.20922852 C-102.79550269 532.04179396 -106.35891761 528.91441031 -109.94140625 525.80859375 C-112.4895665 523.5698875 -114.99410593 521.28589788 -117.5 519 C-121.27639017 515.55605683 -125.08378258 512.15705069 -128.94140625 508.8046875 C-132.99983899 505.24682047 -136.99575024 501.61859456 -141 498 C-144.02977429 499.35231187 -146.08472613 500.85480543 -148.390625 503.23046875 C-149.01364502 503.8651709 -149.63666504 504.49987305 -150.27856445 505.15380859 C-150.92913818 505.82492676 -151.57971191 506.49604492 -152.25 507.1875 C-156.74815103 511.75833211 -161.22247068 516.26445799 -166.125 520.40625 C-168.40383378 522.34325871 -170.60324657 524.35905625 -172.8125 526.375 C-180.53666072 533.33979623 -188.60285972 539.86455366 -197 546 C-201.53444881 541.7463921 -204.24874288 536.85703203 -207.3125 531.5 C-207.87517578 530.54996094 -208.43785156 529.59992187 -209.01757812 528.62109375 C-209.54416016 527.70457031 -210.07074219 526.78804687 -210.61328125 525.84375 C-211.09579346 525.01037109 -211.57830566 524.17699219 -212.07543945 523.31835938 C-213 521 -213 521 -212.85473633 518.88232422 C-211.81175942 516.58545134 -210.69775716 515.58715887 -208.7109375 514.0390625 C-208.02435059 513.4925 -207.33776367 512.9459375 -206.63037109 512.3828125 C-205.5139624 511.51269531 -205.5139624 511.51269531 -204.375 510.625 C-196.52651409 504.33960897 -189.15300229 497.7103602 -181.87792969 490.77636719 C-179.92610826 488.93010448 -177.95464359 487.10714474 -175.9765625 485.2890625 C-167.35043836 477.37013916 -167.35043836 477.37013916 -159.46875 468.72265625 C-157.89738757 466.87964872 -156.22927924 465.19514873 -154.5 463.5 C-132.90929158 442.28209454 -115.37423897 416.27833696 -99 391 C-98.58169922 390.35514648 -98.16339844 389.71029297 -97.73242188 389.04589844 C-95.39631521 385.41697399 -93.17088506 381.7292947 -91 378 C-90.54093262 377.21431641 -90.08186523 376.42863281 -89.60888672 375.61914062 C-68.99291103 340.16615565 -52.96789002 303.23394515 -41 264 C-48.88378449 261.40793334 -56.76806695 258.8173893 -64.65298843 256.22878361 C-68.31431525 255.02672364 -71.97546879 253.8241414 -75.63623047 252.62036133 C-79.16954506 251.45851145 -82.70330933 250.29803907 -86.23738861 249.13851738 C-87.58513215 248.69605907 -88.93271337 248.253106 -90.28012848 247.80964851 C-92.16841728 247.18827414 -94.0573399 246.56882688 -95.94628906 245.94946289 C-97.02106506 245.59638565 -98.09584106 245.24330841 -99.20318604 244.87953186 C-101.46019706 244.16975526 -103.69713979 243.5370148 -106 243 C-106.08709229 243.55437744 -106.17418457 244.10875488 -106.26391602 244.67993164 C-107.65841063 252.56667074 -110.22490315 259.91816588 -112.9375 267.4375 C-113.38519214 268.71534544 -113.83246042 269.99333947 -114.27929688 271.27148438 C-114.71177734 272.47998047 -115.14425781 273.68847656 -115.58984375 274.93359375 C-116.17560181 276.5741272 -116.17560181 276.5741272 -116.77319336 278.24780273 C-118 281 -118 281 -121 284 C-133.87 276.575 -133.87 276.575 -147 269 C-145.3139782 263.37992733 -143.64895066 257.83855652 -141.765625 252.296875 C-131.60259059 221.94900908 -124.33205629 190.8745762 -121 159 C-120.84015625 158.08089844 -120.6803125 157.16179687 -120.515625 156.21484375 C-120.19830267 153.49427142 -120.18795094 151.63274854 -121 149 C-123.54429399 146.62414359 -126.23865952 144.86469371 -129.16796875 142.98828125 C-133.40762108 140.01175293 -135.6241564 136.53014551 -138 132 C-138.41121094 131.28714844 -138.82242187 130.57429687 -139.24609375 129.83984375 C-143.8770533 120.49780424 -143.62508056 107.73482552 -140.4375 97.9375 C-135.82827247 87.41363435 -127.66366564 79.30905483 -117.1875 74.625 C-106.72675669 70.90168458 -96.46343541 71.50016126 -86 75 C-74.22198154 80.65046708 -67.53860331 88.92206391 -63 101 C-59.88722733 110.51790104 -61.38824247 122.07992724 -65.32421875 131.02734375 C-70.29104655 139.8379637 -78.25452351 147.75150784 -88 151 C-88.06469482 151.66604248 -88.12938965 152.33208496 -88.19604492 153.01831055 C-89.6835944 168.02021514 -91.65470571 182.79406551 -94.3737793 197.6159668 C-94.68955933 199.34907104 -94.68955933 199.34907104 -95.01171875 201.1171875 C-95.29728638 202.64255127 -95.29728638 202.64255127 -95.58862305 204.19873047 C-95.97839566 206.85288532 -96.02959666 209.3237241 -96 212 C-89.13258583 214.29690698 -82.26461185 216.59213194 -75.3959446 218.88528919 C-72.20558764 219.9504712 -69.01541665 221.01620295 -65.82568359 222.08325195 C-62.14728956 223.31345285 -58.46823938 224.54167389 -54.7890625 225.76953125 C-53.09470566 226.33689751 -53.09470566 226.33689751 -51.36611938 226.91572571 C-44.94196444 229.0572604 -38.50033752 231.10167589 -32 233 C-29.02091936 217.96868846 -26.43946063 202.92322753 -24.3125 187.75 C-24.15921738 186.67752014 -24.15921738 186.67752014 -24.00283813 185.58337402 C-20.77929561 162.90634283 -19.62348243 140.46478624 -19.6875 117.5625 C-19.68912487 116.22860732 -19.69062932 114.89471448 -19.6920166 113.56082153 C-19.72392047 93.86971961 -20.27557425 74.52178451 -23 55 C-23.16580566 53.77087891 -23.33161133 52.54175781 -23.50244141 51.27539062 C-24.83349377 41.51685371 -26.26720162 31.78710888 -28.12109375 22.11328125 C-28.82146387 18.35241297 -29.20760575 14.84070629 -29 11 C-22.58793803 7.92981779 -16.08772043 5.19183617 -9.4375 2.6875 C-8.73496094 2.42114746 -8.03242187 2.15479492 -7.30859375 1.88037109 C-2.25146965 0 -2.25146965 0 0 0 Z M-114.8125 98.8125 C-119.14966891 103.14966891 -120.79405847 107.92472491 -121 114 C-119.98509362 120.72226224 -117.12584369 124.44249153 -111.9375 128.6875 C-107.39711731 131.76324312 -102.2740234 131.67294661 -97 131 C-91.50542968 128.96567812 -87.68555567 125.32486132 -84.84375 120.24609375 C-82.85515297 114.95237479 -83.30850344 109.92891145 -85.1875 104.6875 C-89.13105998 98.84015244 -93.17932596 95.66787854 -100 94 C-105.72329101 94 -110.02143375 95.72492397 -114.8125 98.8125 Z " fill="#DCB136" transform="translate(1179,644)"/>
<path d="M0 0 C0.77859375 0.65742187 1.5571875 1.31484375 2.359375 1.9921875 C7.37586936 6.31849304 11.86721745 10.82358549 16 16 C16.39944824 16.49822266 16.79889648 16.99644531 17.21044922 17.50976562 C39.95660515 46.21866989 49.38049854 80.82626807 45.49609375 117.23828125 C41.23816552 151.18171976 24.67763647 182.21021816 -2 204 C-2.8765625 204.74894531 -3.753125 205.49789062 -4.65625 206.26953125 C-19.72954411 218.60399228 -37.10042139 226.5709605 -56 231 C-56.72687012 231.17499023 -57.45374023 231.34998047 -58.20263672 231.53027344 C-90.89926502 239.07507458 -125.63111825 232.96113539 -154.3515625 216.0234375 C-185.8433732 195.59851635 -208.19094362 165.8047112 -216.9140625 129.16015625 C-223.73872994 96.45282149 -218.50481602 58.90321789 -200.0625 30.625 C-190.34172152 16.80734171 -179.49598897 4.21640402 -166 -6 C-165.25878906 -6.58007812 -164.51757812 -7.16015625 -163.75390625 -7.7578125 C-115.40094691 -43.79208029 -44.97900544 -38.84550469 0 0 Z " fill="#DCB136" transform="translate(4619,82)"/>
<path d="M0 0 C0.91472076 0.00082581 1.82944153 0.00165161 2.7718811 0.00250244 C19.16295535 0.03649731 35.52650488 0.45201958 51.3125 5.3125 C47.93255381 15.11550543 44.4545489 24.80044965 40.3125 34.3125 C38.4998655 34.16834802 36.68739978 34.02207364 34.875 33.875 C33.86566406 33.79378906 32.85632813 33.71257813 31.81640625 33.62890625 C29.23845458 33.39611463 26.68549567 33.11725357 24.11743164 32.80541992 C19.71063371 32.31432218 15.36111162 32.13674398 10.9296875 32.109375 C10.16108902 32.10236069 9.39249054 32.09534637 8.6006012 32.08811951 C6.1295071 32.07070681 3.65865323 32.06426564 1.1875 32.0625 C0.34035431 32.06182526 -0.50679138 32.06115051 -1.37960815 32.06045532 C-15.01069224 32.07767421 -28.27466745 32.6913348 -41.6875 35.3125 C-42.54972168 35.47878906 -43.41194336 35.64507813 -44.30029297 35.81640625 C-79.57301332 42.88010697 -113.89878887 58.36181117 -141.6875 81.3125 C-142.24356934 81.76705566 -142.79963867 82.22161133 -143.37255859 82.68994141 C-186.8950341 118.43748046 -214.99521353 167.83436802 -224.6875 223.3125 C-224.81737305 224.02970215 -224.94724609 224.7469043 -225.08105469 225.48583984 C-229.1508348 249.13502429 -228.12761231 275.82538882 -223.6875 299.3125 C-223.43009033 300.68486816 -223.43009033 300.68486816 -223.16748047 302.08496094 C-220.54263885 315.60090142 -216.61528002 328.46751933 -211.6875 341.3125 C-211.26597656 342.41851563 -210.84445312 343.52453125 -210.41015625 344.6640625 C-200.05044355 370.54590364 -184.78768756 394.81910793 -165.24121094 414.72802734 C-163.58629104 416.41571278 -161.95376111 418.12357259 -160.3203125 419.83203125 C-152.64388249 427.7729433 -144.56278007 434.74781596 -135.6875 441.3125 C-134.89601563 441.910625 -134.10453125 442.50875 -133.2890625 443.125 C-85.25552695 478.18105401 -24.0857772 492.6274747 34.5625 483.625 C70.53769833 477.67016372 105.00670039 464.25999558 134.3125 442.3125 C134.90289063 441.87615234 135.49328125 441.43980469 136.1015625 440.99023438 C184.22862617 405.21295687 216.03462806 351.01161404 225.125 291.8125 C226.3259564 283.33048388 227.02828367 274.87451691 227.3125 266.3125 C227.35375 265.15234375 227.395 263.9921875 227.4375 262.796875 C228.28659503 214.61073227 213.00646732 168.1325789 186.3125 128.3125 C184.69794922 129.12654297 184.69794922 129.12654297 183.05078125 129.95703125 C164.06969338 139.34378772 144.75319791 142.96272353 124.25048828 136.03564453 C106.39892171 129.37447797 93.46332907 117.0680259 85.0625 100 C77.30674011 82.22811169 77.0290848 63.46146429 84.04394531 45.43261719 C91.83365942 26.90387582 105.18124713 15.16937624 123.3125 7.3125 C129.17491667 5.10803753 135.04447004 3.68519367 141.3125 3.3125 C142.18261719 3.25964844 143.05273438 3.20679688 143.94921875 3.15234375 C161.9732718 2.59886816 177.34205348 8.21118152 191.3125 19.3125 C192.15039062 19.94027344 192.98828125 20.56804688 193.8515625 21.21484375 C205.88834678 31.4747694 214.00470312 48.61893748 215.3125 64.3125 C215.9749333 76.93104644 214.52805315 88.70767836 208.88671875 100.12890625 C208.07853122 103.20221801 208.84782113 104.52243448 210.3125 107.3125 C211.60248854 109.2586034 212.94155446 111.17255365 214.3125 113.0625 C236.38255937 144.33066307 250.36622068 180.58562262 256.3125 218.3125 C256.43415527 219.05612793 256.55581055 219.79975586 256.68115234 220.56591797 C267.16339079 285.7354034 250.19321736 355.32340214 211.8359375 408.80859375 C209.70590946 411.68156972 207.52865592 414.50564846 205.3125 417.3125 C204.36697266 418.54613281 204.36697266 418.54613281 203.40234375 419.8046875 C191.49194804 435.11455961 177.59379416 449.37994991 162.3125 461.3125 C161.35214844 462.08980469 160.39179687 462.86710937 159.40234375 463.66796875 C137.89317825 480.77197014 113.16159324 494.08282377 87.3125 503.3125 C86.45366211 503.62026367 85.59482422 503.92802734 84.70996094 504.24511719 C20.79096508 526.742535 -51.35849022 521.82722265 -112.4375 493 C-134.65313455 482.24586354 -154.98557941 468.23174048 -173.1953125 451.58203125 C-174.81955496 450.10290137 -176.45963216 448.64091881 -178.1171875 447.19921875 C-218.20529336 412.170155 -244.01139236 360.97019643 -254.5625 309.375 C-254.75368408 308.44244385 -254.94486816 307.5098877 -255.1418457 306.54907227 C-258.12549507 290.86967656 -259.07234618 275.11872297 -259 259.1875 C-258.99817719 258.34421143 -258.99635437 257.50092285 -258.99447632 256.63208008 C-258.94286278 242.35782514 -258.16423536 228.39570423 -255.6875 214.3125 C-255.52652832 213.37696289 -255.36555664 212.44142578 -255.19970703 211.47753906 C-251.17415301 188.94835774 -243.82781971 166.82803319 -233.6875 146.3125 C-233.27242188 145.46993652 -232.85734375 144.62737305 -232.4296875 143.75927734 C-226.60663007 132.05569811 -220.31295926 120.93134252 -212.6875 110.3125 C-212.0056665 109.34884521 -212.0056665 109.34884521 -211.31005859 108.36572266 C-204.73395328 99.11405615 -197.59390035 90.69073988 -189.71875 82.51953125 C-187.20249319 79.90473355 -184.95304453 77.14808477 -182.6875 74.3125 C-181.53283231 73.21440846 -180.34500369 72.1500139 -179.125 71.125 C-176.8282313 69.17190837 -174.5780079 67.20859423 -172.390625 65.1328125 C-159.62670343 53.04276256 -145.08396505 42.77205807 -129.6875 34.3125 C-128.84203613 33.84602051 -127.99657227 33.37954102 -127.12548828 32.89892578 C-102.91443611 19.65072656 -77.96523353 10.0196533 -50.875 4.5 C-49.44667847 4.20766479 -49.44667847 4.20766479 -47.98950195 3.90942383 C-32.04158309 0.84620298 -16.20984622 -0.06216659 0 0 Z M124.13671875 49.13671875 C118.4165284 55.95930125 114.73978906 64.34002868 115.3125 73.3125 C116.66272049 83.12070545 120.14928386 89.24179978 127.125 96.0625 C134.68762294 101.40082208 142.35422843 103.95978108 151.6640625 103.09375 C161.77148783 101.28761214 169.90455717 94.61486769 175.703125 86.32421875 C179.73008384 78.79494007 179.54398922 69.52211453 177.6171875 61.37109375 C174.41180955 52.54957041 168.71366716 46.43586697 160.3125 42.3125 C147.66518593 37.33393023 133.97275069 39.81942277 124.13671875 49.13671875 Z " fill="#DCB136" transform="translate(646.6875,501.6875)"/>
<path d="M0 0 C11.01722796 0.57894902 21.91804299 1.37854678 32.875 2.6875 C33.59144684 2.77236664 34.30789368 2.85723328 35.04605103 2.94467163 C102.64528522 11.03630672 168.70889311 29.59660499 230.29248047 58.72412109 C232.83497278 59.92223334 235.38593519 61.09941352 237.94140625 62.26953125 C281.78217832 82.46222447 323.37111872 109.50007538 360.55078125 140.171875 C363.26006948 142.40606784 366.01296125 144.56678746 368.8125 146.6875 C373.04764524 149.94221313 376.93910589 153.53027377 380.8359375 157.1796875 C382.54399748 158.74857862 384.2748857 160.21358415 386.10742188 161.63745117 C395.49527688 168.96965816 403.72736683 177.46141632 412.10791016 185.90209961 C414.75237615 188.56489262 417.40482754 191.21952561 420.05859375 193.87304688 C421.7634941 195.58286155 423.46793706 197.29313246 425.171875 199.00390625 C425.9543158 199.78745987 426.73675659 200.57101349 427.54290771 201.37831116 C432.22247461 206.09796386 436.68285445 210.9474993 441 216 C441.93822746 217.08252954 442.87693093 218.16464699 443.81640625 219.24609375 C456.21927894 233.62957675 468.15188974 248.22828395 479.27978516 263.62695312 C480.98087551 265.97361764 482.69733442 268.30826443 484.41796875 270.640625 C490.96314359 279.54811855 497.06703571 288.60945691 502.80712891 298.05419922 C503.99221125 299.98729505 505.20020403 301.90375608 506.41796875 303.81640625 C543.23977089 361.70339672 570.1978623 426.24905966 586 493 C586.25442871 494.0513916 586.50885742 495.1027832 586.77099609 496.18603516 C594.44050585 528.06228348 602 563.07199498 602 596 C591.77 596 581.54 596 571 596 C569.59494596 593.18989191 569.5367672 590.54822602 569.203125 587.421875 C569.05073681 586.03461914 568.8978838 584.64741428 568.74462891 583.26025391 C568.62441376 582.15873993 568.62441376 582.15873993 568.50177002 581.03497314 C558.57769207 490.96765042 529.75334762 403.60783696 433.42822266 257.73242188 C431.3873751 255.25689123 429.38572864 252.75001785 427.375 250.25 C423.28410604 245.24918294 418.94860291 240.50611808 414.5546875 235.7734375 C412.48748759 233.52922965 410.4796492 231.25814141 408.5 228.9375 C405.18399526 225.10212103 401.59209619 221.56026734 397.9831543 218.00463867 C395.46456276 215.5104192 393.06394049 212.98740715 390.8125 210.25 C388.21326379 207.11758713 385.29068308 204.57020462 382.19140625 201.94140625 C379.74059942 199.77019236 377.47342971 197.46889306 375.1875 195.125 C370.96091965 190.84671836 366.5088912 187.05379524 361.8125 183.3046875 C357.86917063 180.07334816 354.14764344 176.63183412 350.41015625 173.1640625 C346.71536505 169.42950568 346.71536505 169.42950568 342 168 C340.69901671 169.41334972 340.69901671 169.41334972 339.41796875 171.3046875 C338.90500244 172.02390381 338.39203613 172.74312012 337.86352539 173.48413086 C337.03389282 174.66761108 337.03389282 174.66761108 336.1875 175.875 C335.00274187 177.54046255 333.81784222 179.20582443 332.6328125 180.87109375 C331.72450684 182.1547583 331.72450684 182.1547583 330.79785156 183.46435547 C328.0748715 187.30477792 325.31907424 191.12116196 322.5625 194.9375 C321.77854858 196.02998047 321.77854858 196.02998047 320.97875977 197.14453125 C318.05233254 201.21175403 315.07554071 205.23193274 312.03515625 209.21484375 C311.05663696 210.50757202 311.05663696 210.50757202 310.05834961 211.82641602 C308.79243775 213.49516888 307.51624524 215.15618433 306.22875977 216.80834961 C305.66084717 217.55995361 305.09293457 218.31155762 304.5078125 219.0859375 C303.74428467 220.0766626 303.74428467 220.0766626 302.96533203 221.08740234 C301.80368772 222.96233341 301.80368772 222.96233341 302.21533203 225.12353516 C303.39473808 227.9439816 305.33523524 229.15752053 307.75 231 C313.86551908 235.83094484 319.54847997 241.01443638 325.23046875 246.34375 C327.09577948 248.0896479 328.96899246 249.82675253 330.84375 251.5625 C348.37999588 267.81832852 348.37999588 267.81832852 356.0625 276.78125 C357.98572656 278.98365461 359.96032011 281.13253658 361.94946289 283.27539062 C367.55756363 289.32241961 372.84534302 295.55880879 378 302 C378.92240375 303.13083957 379.84562196 304.26101515 380.76953125 305.390625 C401.87932498 331.31991038 420.22582543 359.53592618 436 389 C436.47824219 389.88945312 436.95648437 390.77890625 437.44921875 391.6953125 C445.44483052 406.61771391 452.79108013 421.73516951 459.25 437.38671875 C459.58515625 438.19713623 459.9203125 439.00755371 460.265625 439.8425293 C461 442 461 442 461 445 C447.14 450.445 447.14 450.445 433 456 C430.93925239 452.90887859 429.47197729 449.74936171 427.98046875 446.3671875 C427.37130773 445.00199276 426.76166822 443.63701144 426.15161133 442.2722168 C425.83173248 441.55512543 425.51185364 440.83803406 425.18228149 440.09921265 C403.36059713 391.30853187 374.96773156 344.89113214 338.4140625 305.625 C337.13733952 304.2367187 335.86605421 302.84225343 334.64526367 301.40454102 C329.09029013 294.87269723 323.01752541 288.8665947 316.94848633 282.81811523 C315.06671726 280.94170525 313.19035262 279.06001031 311.31445312 277.17773438 C305.38034361 271.24003633 299.43835123 265.39650376 293 260 C291.98989487 259.12353612 290.98073221 258.24598451 289.97265625 257.3671875 C263.70715887 234.87405014 235.08381789 215.43129984 205 198.4375 C204.13072876 197.94612549 204.13072876 197.94612549 203.24389648 197.44482422 C201.16949926 196.2835655 199.08634616 195.13967808 197 194 C195.90397461 193.40058594 194.80794922 192.80117188 193.67871094 192.18359375 C185.01863678 187.4846378 176.23900509 183.16070739 167.25 179.125 C166.25654068 178.67744858 166.25654068 178.67744858 165.24301147 178.22085571 C151.72954928 172.15354183 138.01060678 166.81717145 124 162 C122.88625 161.61505371 121.7725 161.23010742 120.625 160.83349609 C96.30022101 152.51020947 71.58415277 146.19988052 46.3125 141.5625 C45.63289215 141.43662506 44.9532843 141.31075012 44.25308228 141.18106079 C35.51610084 139.57939396 26.86947253 138.49499227 18 138 C17.62206299 138.6189917 17.24412598 139.2379834 16.85473633 139.87573242 C10.5563392 150.04238283 2.31083246 156.64998158 -9.4453125 159.6171875 C-21.65754755 161.44715544 -32.24599214 159.42152309 -42.61328125 152.78125 C-51.33539679 146.27178243 -56.52767584 137.53980018 -58.61328125 126.859375 C-60.07153105 116.07716437 -58.33988309 104.90299947 -51.71875 96.05859375 C-51.1515625 95.37925781 -50.584375 94.69992188 -50 94 C-49.4121875 93.28972656 -48.824375 92.57945312 -48.21875 91.84765625 C-40.7636947 83.64404007 -30.93463605 79.88659211 -20 79 C-9.36187394 78.73978684 0.89859311 82.50806891 9.1796875 89.1953125 C13.98058188 93.95499749 18.04302941 99.20429745 19 106 C20.16394287 105.97800537 21.32788574 105.95601074 22.52709961 105.93334961 C26.62439051 105.9364414 30.51698694 106.40645708 34.56640625 107.06640625 C35.2696553 107.18030701 35.97290436 107.29420776 36.69746399 107.41156006 C38.98736492 107.78645375 41.27504552 108.17297079 43.5625 108.5625 C44.35489075 108.69627045 45.14728149 108.83004089 45.96368408 108.96786499 C127.66868128 122.83772358 208.62516469 154.70464935 275 205 C280.57388491 198.29786648 285.70684234 191.3289114 290.78442383 184.24853516 C294.93441914 178.46369321 299.14008527 172.72291905 303.375 167 C308.0117645 160.72882043 312.58160586 154.42749591 317 148 C310.30683125 142.45645586 303.43262995 137.4493798 296.125 132.75 C294.62453125 131.77957764 294.62453125 131.77957764 293.09375 130.78955078 C283.52513737 124.63505548 273.82340292 118.73709421 264 113 C262.72697021 112.24734863 262.72697021 112.24734863 261.42822266 111.47949219 C236.73674483 96.9151453 210.71906346 84.38198942 184 74 C182.9471582 73.59088379 181.89431641 73.18176758 180.80957031 72.76025391 C129.39069874 52.95159368 76.53870961 39.79679519 21.77687073 33.78475952 C14.49669407 32.97814764 7.26896702 31.9691956 0 31 C0 20.77 0 10.54 0 0 Z M-32.375 107.375 C-36.41463452 112.63311123 -37.84352452 117.30452413 -37 124 C-34.84239891 129.79145556 -31.37159563 133.43690288 -26.25 136.8125 C-20.53169086 138.90188219 -15.36440186 138.89512497 -9.75 136.4375 C-4.70532598 133.61812131 -1.80393972 129.41181916 0 124 C0.53880057 117.64215327 -0.33159192 113.28748943 -4 108 C-7.98704228 103.57617499 -12.50599243 101.45973784 -18.375 100.6875 C-24.11349813 101.37065454 -28.47499643 102.99822338 -32.375 107.375 Z " fill="#DCB136" transform="translate(691,114)"/>
</svg>
